<svg xmlns="http://www.w3.org/2000/svg" width="18.138" height="18.171" viewBox="0 0 18.138 18.171">
  <path id="Icon_feather-phone" data-name="Icon feather-phone" d="M19.8,15.48V17.99a1.673,1.673,0,0,1-1.824,1.673,16.554,16.554,0,0,1-7.219-2.568,16.311,16.311,0,0,1-5.019-5.019A16.554,16.554,0,0,1,3.175,4.823,1.673,1.673,0,0,1,4.839,3H7.349A1.673,1.673,0,0,1,9.022,4.439a10.74,10.74,0,0,0,.586,2.35,1.673,1.673,0,0,1-.376,1.765L8.168,9.616a13.384,13.384,0,0,0,5.019,5.019l1.062-1.062a1.673,1.673,0,0,1,1.765-.376,10.74,10.74,0,0,0,2.351.586A1.673,1.673,0,0,1,19.8,15.48Z" transform="translate(-2.417 -2.25)" fill="none" stroke="#f1ca08" stroke-linecap="round" stroke-linejoin="round" stroke-width="1.5"/>
</svg>
