<svg xmlns="http://www.w3.org/2000/svg" width="19.906" height="19.906" viewBox="0 0 19.906 19.906">
  <path id="Icon_awesome-linkedin" data-name="Icon awesome-linkedin" d="M18.484,2.25H1.417A1.428,1.428,0,0,0,0,3.685V20.721a1.428,1.428,0,0,0,1.417,1.435H18.484a1.432,1.432,0,0,0,1.422-1.435V3.685A1.432,1.432,0,0,0,18.484,2.25ZM6.016,19.312H3.066v-9.5H6.021v9.5ZM4.541,8.515A1.711,1.711,0,1,1,6.252,6.8,1.711,1.711,0,0,1,4.541,8.515Zm12.534,10.8h-2.95V14.691c0-1.1-.022-2.519-1.533-2.519-1.537,0-1.773,1.2-1.773,2.439v4.7H7.869v-9.5H10.7v1.3h.04a3.107,3.107,0,0,1,2.795-1.533c2.986,0,3.541,1.968,3.541,4.528Z" transform="translate(0 -2.25)" fill="#fff"/>
</svg>
