<svg xmlns="http://www.w3.org/2000/svg" width="22.749" height="18.477" viewBox="0 0 22.749 18.477">
  <path id="Icon_awesome-twitter" data-name="Icon awesome-twitter" d="M20.411,7.985c.014.2.014.4.014.606A13.175,13.175,0,0,1,7.16,21.857,13.176,13.176,0,0,1,0,19.764a9.645,9.645,0,0,0,1.126.058A9.338,9.338,0,0,0,6.914,17.83,4.671,4.671,0,0,1,2.555,14.6a5.88,5.88,0,0,0,.881.072,4.931,4.931,0,0,0,1.227-.159A4.663,4.663,0,0,1,.924,9.934V9.876a4.7,4.7,0,0,0,2.107.592A4.669,4.669,0,0,1,1.588,4.232,13.253,13.253,0,0,0,11.2,9.111a5.263,5.263,0,0,1-.115-1.068,4.667,4.667,0,0,1,8.069-3.19,9.18,9.18,0,0,0,2.959-1.126A4.65,4.65,0,0,1,20.064,6.3a9.347,9.347,0,0,0,2.685-.722,10.022,10.022,0,0,1-2.338,2.411Z" transform="translate(0 -3.381)" fill="#fff"/>
</svg>
