<svg width="9" height="6" viewBox="0 0 9 6" fill="none" xmlns="http://www.w3.org/2000/svg">
<path d="M4.40941 5.05441C4.54161 5.0386 4.66465 4.97746 4.75839 4.88098L8.28493 1.28099C8.33951 1.22497 8.38274 1.15853 8.41217 1.08545C8.4416 1.01238 8.45663 0.934099 8.45642 0.855089C8.45621 0.77608 8.44076 0.697887 8.41095 0.624975C8.38114 0.552062 8.33754 0.485859 8.28267 0.430146C8.22779 0.374432 8.16269 0.330299 8.0911 0.300267C8.01951 0.270235 7.94283 0.254892 7.86544 0.255114C7.78804 0.255337 7.71144 0.27112 7.64002 0.301563C7.5686 0.332006 7.50376 0.376513 7.44918 0.432541L4.34052 3.60598L1.23185 0.432541C1.17728 0.376513 1.11244 0.332007 1.04102 0.301564C0.969596 0.271121 0.892992 0.255337 0.815595 0.255114C0.738198 0.254892 0.661519 0.270235 0.589931 0.300267C0.518344 0.330299 0.453253 0.374432 0.398375 0.430146C0.343496 0.48586 0.299904 0.552063 0.27009 0.624975C0.240277 0.697887 0.224821 0.776081 0.224611 0.85509C0.224402 0.934099 0.239443 1.01238 0.268871 1.08545C0.298298 1.15853 0.341541 1.22497 0.396124 1.28099L3.92265 4.88098C3.98555 4.94574 4.06206 4.99503 4.14641 5.02508C4.23075 5.05513 4.3207 5.06516 4.40941 5.05441V5.05441Z" fill="#365E70"/>
</svg>
