<svg xmlns="http://www.w3.org/2000/svg" width="131.565" height="118.717" viewBox="0 0 131.565 118.717">
  <g id="calendar" transform="translate(0 -25)">
    <path id="Path_1073" data-name="Path 1073" d="M131.565,76.563v85.312A11.577,11.577,0,0,1,120,173.438H11.563A11.577,11.577,0,0,1,0,161.875V76.563A11.577,11.577,0,0,1,11.563,65H120A11.577,11.577,0,0,1,131.565,76.563Z" transform="translate(0 -29.721)" fill="#f0f0f0"/>
    <path id="Path_1074" data-name="Path 1074" d="M321.783,76.563v85.312a11.577,11.577,0,0,1-11.563,11.563H256V65h54.219A11.577,11.577,0,0,1,321.783,76.563Z" transform="translate(-190.218 -29.721)" fill="#dfdedb"/>
    <path id="Path_1075" data-name="Path 1075" d="M131.565,76.563V95.579a3.856,3.856,0,0,1-3.854,3.854H3.854A3.856,3.856,0,0,1,0,95.579V76.563A11.577,11.577,0,0,1,11.563,65H120A11.577,11.577,0,0,1,131.565,76.563Z" transform="translate(0 -29.721)" fill="#f0d448"/>
    <path id="Path_1076" data-name="Path 1076" d="M321.783,76.563V95.579a3.856,3.856,0,0,1-3.854,3.854H256V65h54.219A11.577,11.577,0,0,1,321.783,76.563Z" transform="translate(-190.218 -29.721)" fill="#f1ca08"/>
    <path id="Path_1077" data-name="Path 1077" d="M84.854,53.266A3.855,3.855,0,0,1,81,49.411V28.854a3.854,3.854,0,1,1,7.709,0V49.411A3.855,3.855,0,0,1,84.854,53.266Z" transform="translate(-60.186)" fill="#ffe278"/>
    <path id="Path_1078" data-name="Path 1078" d="M248.709,28.854V49.411a3.854,3.854,0,1,1-7.709,0V28.854a3.854,3.854,0,1,1,7.709,0Z" transform="translate(-179.072)" fill="#ffe278"/>
    <path id="Path_1079" data-name="Path 1079" d="M259.854,28.854V49.411A3.856,3.856,0,0,1,256,53.266V25A3.856,3.856,0,0,1,259.854,28.854Z" transform="translate(-190.218)" fill="#ffb454"/>
    <path id="Path_1080" data-name="Path 1080" d="M404.854,53.266A3.855,3.855,0,0,1,401,49.411V28.854a3.854,3.854,0,1,1,7.709,0V49.411A3.855,3.855,0,0,1,404.854,53.266Z" transform="translate(-297.958)" fill="#ffb454"/>
    <g id="Group_1061" data-name="Group 1061" transform="translate(24.925 82.56)">
      <path id="Path_1081" data-name="Path 1081" d="M109.077,256.709h-8.223a3.854,3.854,0,1,1,0-7.709h8.223a3.854,3.854,0,1,1,0,7.709Z" transform="translate(-97 -249)" fill="#1e1e1e"/>
      <path id="Path_1082" data-name="Path 1082" d="M109.077,320.709h-8.223a3.854,3.854,0,1,1,0-7.709h8.223a3.854,3.854,0,1,1,0,7.709Z" transform="translate(-97 -296.554)" fill="#1e1e1e"/>
      <path id="Path_1083" data-name="Path 1083" d="M109.077,384.709h-8.223a3.854,3.854,0,1,1,0-7.709h8.223a3.854,3.854,0,1,1,0,7.709Z" transform="translate(-97 -344.109)" fill="#1e1e1e"/>
      <path id="Path_1084" data-name="Path 1084" d="M240.932,252.854a3.856,3.856,0,0,1-3.854,3.854h-8.223a3.854,3.854,0,1,1,0-7.709h8.223A3.856,3.856,0,0,1,240.932,252.854Z" transform="translate(-192.109 -249)" fill="#1e1e1e"/>
    </g>
    <path id="Path_1085" data-name="Path 1085" d="M263.966,252.854a3.856,3.856,0,0,1-3.854,3.854H256V249h4.111A3.856,3.856,0,0,1,263.966,252.854Z" transform="translate(-190.218 -166.44)" fill="#333"/>
    <path id="Path_1086" data-name="Path 1086" d="M240.932,316.854a3.856,3.856,0,0,1-3.854,3.854h-8.223a3.854,3.854,0,0,1,0-7.709h8.223A3.856,3.856,0,0,1,240.932,316.854Z" transform="translate(-167.183 -213.995)" fill="#1e1e1e"/>
    <path id="Path_1087" data-name="Path 1087" d="M260.111,320.709H256V313h4.111a3.854,3.854,0,0,1,0,7.709Z" transform="translate(-190.218 -213.995)" fill="#333"/>
    <path id="Path_1088" data-name="Path 1088" d="M240.932,380.854a3.856,3.856,0,0,1-3.854,3.854h-8.223a3.854,3.854,0,0,1,0-7.709h8.223A3.856,3.856,0,0,1,240.932,380.854Z" transform="translate(-167.183 -261.549)" fill="#1e1e1e"/>
    <path id="Path_1089" data-name="Path 1089" d="M263.966,380.854a3.856,3.856,0,0,1-3.854,3.854H256V377h4.111A3.856,3.856,0,0,1,263.966,380.854Z" transform="translate(-190.218 -261.549)" fill="#333"/>
    <path id="Path_1090" data-name="Path 1090" d="M365.077,256.709h-8.223a3.854,3.854,0,1,1,0-7.709h8.223a3.854,3.854,0,1,1,0,7.709Z" transform="translate(-262.292 -166.44)" fill="#333"/>
    <path id="Path_1091" data-name="Path 1091" d="M365.077,320.709h-8.223a3.854,3.854,0,1,1,0-7.709h8.223a3.854,3.854,0,1,1,0,7.709Z" transform="translate(-262.292 -213.995)" fill="#333"/>
    <path id="Path_1092" data-name="Path 1092" d="M365.077,384.709h-8.223a3.854,3.854,0,1,1,0-7.709h8.223a3.854,3.854,0,1,1,0,7.709Z" transform="translate(-262.292 -261.549)" fill="#333"/>
  </g>
</svg>
