<svg id="checkbox" xmlns="http://www.w3.org/2000/svg" width="112" height="112" viewBox="0 0 112 112">
  <path id="Path_1124" data-name="Path 1124" d="M93.857,0H18.143A18.143,18.143,0,0,0,0,18.143V93.857A18.143,18.143,0,0,0,18.143,112H93.857A18.143,18.143,0,0,0,112,93.857V18.143A18.143,18.143,0,0,0,93.857,0Zm0,0" fill="#f1ca08"/>
  <path id="Path_1125" data-name="Path 1125" d="M62.674,0H18.143A18.143,18.143,0,0,0,0,18.143V93.857A18.143,18.143,0,0,0,18.143,112H41.5C23.117,89.949,30.04,49.2,43.928,33.3,57.339,17.952,61.433,5.665,62.674,0Zm0,0" fill="#d0ae05"/>
  <path id="Path_1126" data-name="Path 1126" d="M116.987,184.97a9.012,9.012,0,0,1-6.2-2.469l-23.6-22.342a9.014,9.014,0,0,1,12.394-13.093l16.886,15.984,27.274-30.339a9.014,9.014,0,1,1,13.407,12.053l-33.458,37.217a9.017,9.017,0,0,1-6.34,2.98C117.229,184.968,117.108,184.97,116.987,184.97Zm0,0" transform="translate(-65.915 -101.347)" fill="#fff"/>
  <path id="Path_1127" data-name="Path 1127" d="M99.582,200.189a9.014,9.014,0,0,0-12.394,13.093l9.569,9.059a80.387,80.387,0,0,1,4.849-20.234Zm0,0" transform="translate(-65.915 -154.47)" fill="#f1ca08"/>
</svg>
