<svg xmlns="http://www.w3.org/2000/svg" width="19.906" height="19.906" viewBox="0 0 19.906 19.906">
  <path id="Icon_awesome-facebook-square" data-name="Icon awesome-facebook-square" d="M17.773,2.25H2.133A2.133,2.133,0,0,0,0,4.383v15.64a2.133,2.133,0,0,0,2.133,2.133h6.1V15.388h-2.8V12.2h2.8V9.775c0-2.761,1.644-4.287,4.162-4.287A16.958,16.958,0,0,1,14.86,5.7v2.71H13.471a1.593,1.593,0,0,0-1.8,1.721V12.2h3.056l-.489,3.185H11.675v6.768h6.1a2.133,2.133,0,0,0,2.133-2.133V4.383A2.133,2.133,0,0,0,17.773,2.25Z" transform="translate(0 -2.25)" fill="#fff"/>
</svg>
