<svg xmlns="http://www.w3.org/2000/svg" width="349.411" height="349.41" viewBox="0 0 349.411 349.41">
  <g id="Group_520" data-name="Group 520" transform="translate(-88.667 -897.508)" opacity="0.5">
    <rect id="Rectangle_100" data-name="Rectangle 100" width="10" height="10" rx="5" transform="translate(292.313 920.135)" fill="#f1ca08"/>
    <rect id="Rectangle_100-2" data-name="Rectangle 100" width="10" height="10" rx="5" transform="translate(314.94 942.763)" fill="#f1ca08"/>
    <rect id="Rectangle_100-3" data-name="Rectangle 100" width="10" height="10" rx="5" transform="translate(337.568 965.39)" fill="#f1ca08"/>
    <rect id="Rectangle_100-4" data-name="Rectangle 100" width="10" height="10" rx="5" transform="translate(360.195 988.018)" fill="#f1ca08"/>
    <rect id="Rectangle_100-5" data-name="Rectangle 100" width="10" height="10" rx="5" transform="translate(382.823 1010.646)" fill="#f1ca08"/>
    <rect id="Rectangle_100-6" data-name="Rectangle 100" width="10" height="10" rx="5" transform="translate(405.451 1033.273)" fill="#f1ca08"/>
    <rect id="Rectangle_100-7" data-name="Rectangle 100" width="10" height="10" rx="5" transform="translate(224.431 897.508)" fill="#dfdedb"/>
    <rect id="Rectangle_100-8" data-name="Rectangle 100" width="10" height="10" rx="5" transform="translate(247.059 920.136)" fill="#dfdedb"/>
    <rect id="Rectangle_100-9" data-name="Rectangle 100" width="10" height="10" rx="5" transform="translate(269.686 942.763)" fill="#f1ca08"/>
    <rect id="Rectangle_100-10" data-name="Rectangle 100" width="10" height="10" rx="5" transform="translate(292.313 965.391)" fill="#f1ca08"/>
    <rect id="Rectangle_100-11" data-name="Rectangle 100" width="10" height="10" rx="5" transform="translate(314.94 988.017)" fill="#f1ca08"/>
    <rect id="Rectangle_100-12" data-name="Rectangle 100" width="10" height="10" rx="5" transform="translate(337.568 1010.645)" fill="#f1ca08"/>
    <rect id="Rectangle_100-13" data-name="Rectangle 100" width="10" height="10" rx="5" transform="translate(360.195 1033.272)" fill="#f1ca08"/>
    <rect id="Rectangle_100-14" data-name="Rectangle 100" width="10" height="10" rx="5" transform="translate(382.823 1055.9)" fill="#f1ca08"/>
    <rect id="Rectangle_100-15" data-name="Rectangle 100" width="10" height="10" rx="5" transform="translate(201.804 920.135)" fill="#dfdedb"/>
    <rect id="Rectangle_100-16" data-name="Rectangle 100" width="10" height="10" rx="5" transform="translate(224.432 942.764)" fill="#dfdedb"/>
    <rect id="Rectangle_100-17" data-name="Rectangle 100" width="10" height="10" rx="5" transform="translate(247.058 965.391)" fill="#f1ca08"/>
    <rect id="Rectangle_100-18" data-name="Rectangle 100" width="10" height="10" rx="5" transform="translate(269.687 988.018)" fill="#f1ca08"/>
    <rect id="Rectangle_100-19" data-name="Rectangle 100" width="10" height="10" rx="5" transform="translate(292.313 1010.646)" fill="#dfdedb"/>
    <rect id="Rectangle_100-20" data-name="Rectangle 100" width="10" height="10" rx="5" transform="translate(314.94 1033.272)" fill="#dfdedb"/>
    <rect id="Rectangle_100-21" data-name="Rectangle 100" width="10" height="10" rx="5" transform="translate(337.568 1055.9)" fill="#dfdedb"/>
    <rect id="Rectangle_100-22" data-name="Rectangle 100" width="10" height="10" rx="5" transform="translate(360.195 1078.527)" fill="#dfdedb"/>
    <rect id="Rectangle_100-23" data-name="Rectangle 100" width="10" height="10" rx="5" transform="translate(382.823 1101.155)" fill="#dfdedb"/>
    <rect id="Rectangle_100-24" data-name="Rectangle 100" width="10" height="10" rx="5" transform="translate(179.176 942.763)" fill="#dfdedb"/>
    <rect id="Rectangle_100-25" data-name="Rectangle 100" width="10" height="10" rx="5" transform="translate(201.803 965.39)" fill="#dfdedb"/>
    <rect id="Rectangle_100-26" data-name="Rectangle 100" width="10" height="10" rx="5" transform="translate(224.432 988.018)" fill="#f1ca08"/>
    <rect id="Rectangle_100-27" data-name="Rectangle 100" width="10" height="10" rx="5" transform="translate(247.059 1010.646)" fill="#f1ca08"/>
    <rect id="Rectangle_100-28" data-name="Rectangle 100" width="10" height="10" rx="5" transform="translate(269.686 1033.272)" fill="#dfdedb"/>
    <rect id="Rectangle_100-29" data-name="Rectangle 100" width="10" height="10" rx="5" transform="translate(292.313 1055.9)" fill="#dfdedb"/>
    <rect id="Rectangle_100-30" data-name="Rectangle 100" width="10" height="10" rx="5" transform="translate(314.941 1078.527)" fill="#dfdedb"/>
    <rect id="Rectangle_100-31" data-name="Rectangle 100" width="10" height="10" rx="5" transform="translate(337.568 1101.154)" fill="#dfdedb"/>
    <rect id="Rectangle_100-32" data-name="Rectangle 100" width="10" height="10" rx="5" transform="translate(360.195 1123.782)" fill="#dfdedb"/>
    <rect id="Rectangle_100-33" data-name="Rectangle 100" width="10" height="10" rx="5" transform="translate(156.548 965.39)" fill="#dfdedb"/>
    <rect id="Rectangle_100-34" data-name="Rectangle 100" width="10" height="10" rx="5" transform="translate(179.176 988.017)" fill="#dfdedb"/>
    <rect id="Rectangle_100-35" data-name="Rectangle 100" width="10" height="10" rx="5" transform="translate(201.804 1010.645)" fill="#f1ca08"/>
    <rect id="Rectangle_100-36" data-name="Rectangle 100" width="10" height="10" rx="5" transform="translate(224.432 1033.273)" fill="#f1ca08"/>
    <rect id="Rectangle_100-37" data-name="Rectangle 100" width="10" height="10" rx="5" transform="translate(247.059 1055.901)" fill="#dfdedb"/>
    <rect id="Rectangle_100-38" data-name="Rectangle 100" width="10" height="10" rx="5" transform="translate(269.687 1078.528)" fill="#dfdedb"/>
    <rect id="Rectangle_100-39" data-name="Rectangle 100" width="10" height="10" rx="5" transform="translate(292.313 1101.155)" fill="#dfdedb"/>
    <rect id="Rectangle_100-40" data-name="Rectangle 100" width="10" height="10" rx="5" transform="translate(314.94 1123.782)" fill="#dfdedb"/>
    <rect id="Rectangle_100-41" data-name="Rectangle 100" width="10" height="10" rx="5" transform="translate(337.568 1146.409)" fill="#dfdedb"/>
    <rect id="Rectangle_100-42" data-name="Rectangle 100" width="10" height="10" rx="5" transform="translate(133.921 988.017)" fill="#dfdedb"/>
    <rect id="Rectangle_100-43" data-name="Rectangle 100" width="10" height="10" rx="5" transform="translate(156.549 1010.645)" fill="#dfdedb"/>
    <rect id="Rectangle_100-44" data-name="Rectangle 100" width="10" height="10" rx="5" transform="translate(179.176 1033.272)" fill="#dfdedb"/>
    <rect id="Rectangle_100-45" data-name="Rectangle 100" width="10" height="10" rx="5" transform="translate(201.804 1055.901)" fill="#dfdedb"/>
    <rect id="Rectangle_100-46" data-name="Rectangle 100" width="10" height="10" rx="5" transform="translate(224.431 1078.528)" fill="#dfdedb"/>
    <rect id="Rectangle_100-47" data-name="Rectangle 100" width="10" height="10" rx="5" transform="translate(247.059 1101.155)" fill="#dfdedb"/>
    <rect id="Rectangle_100-48" data-name="Rectangle 100" width="10" height="10" rx="5" transform="translate(269.686 1123.783)" fill="#dfdedb"/>
    <rect id="Rectangle_100-49" data-name="Rectangle 100" width="10" height="10" rx="5" transform="translate(292.313 1146.409)" fill="#dfdedb"/>
    <rect id="Rectangle_100-50" data-name="Rectangle 100" width="10" height="10" rx="5" transform="translate(314.941 1169.037)" fill="#dfdedb"/>
    <rect id="Rectangle_100-51" data-name="Rectangle 100" width="10" height="10" rx="5" transform="translate(111.294 1010.646)" fill="#dfdedb"/>
    <rect id="Rectangle_100-52" data-name="Rectangle 100" width="10" height="10" rx="5" transform="translate(133.921 1033.272)" fill="#dfdedb"/>
    <rect id="Rectangle_100-53" data-name="Rectangle 100" width="10" height="10" rx="5" transform="translate(156.548 1055.901)" fill="#dfdedb"/>
    <rect id="Rectangle_100-54" data-name="Rectangle 100" width="10" height="10" rx="5" transform="translate(179.176 1078.527)" fill="#dfdedb"/>
    <rect id="Rectangle_100-55" data-name="Rectangle 100" width="10" height="10" rx="5" transform="translate(201.804 1101.154)" fill="#dfdedb"/>
    <rect id="Rectangle_100-56" data-name="Rectangle 100" width="10" height="10" rx="5" transform="translate(224.431 1123.783)" fill="#dfdedb"/>
    <rect id="Rectangle_100-57" data-name="Rectangle 100" width="10" height="10" rx="5" transform="translate(247.059 1146.41)" fill="#dfdedb"/>
    <rect id="Rectangle_100-58" data-name="Rectangle 100" width="10" height="10" rx="5" transform="translate(269.686 1169.038)" fill="#dfdedb"/>
    <rect id="Rectangle_100-59" data-name="Rectangle 100" width="10" height="10" rx="5" transform="translate(292.313 1191.664)" fill="#dfdedb"/>
    <rect id="Rectangle_100-60" data-name="Rectangle 100" width="10" height="10" rx="5" transform="translate(88.667 1033.272)" fill="#dfdedb"/>
    <rect id="Rectangle_100-61" data-name="Rectangle 100" width="10" height="10" rx="5" transform="translate(111.293 1055.9)" fill="#dfdedb"/>
    <rect id="Rectangle_100-62" data-name="Rectangle 100" width="10" height="10" rx="5" transform="translate(133.921 1078.527)" fill="#dfdedb"/>
    <rect id="Rectangle_100-63" data-name="Rectangle 100" width="10" height="10" rx="5" transform="translate(156.549 1101.154)" fill="#dfdedb"/>
    <rect id="Rectangle_100-64" data-name="Rectangle 100" width="10" height="10" rx="5" transform="translate(179.176 1123.782)" fill="#f1ca08"/>
    <rect id="Rectangle_100-65" data-name="Rectangle 100" width="10" height="10" rx="5" transform="translate(201.804 1146.41)" fill="#f1ca08"/>
    <rect id="Rectangle_100-66" data-name="Rectangle 100" width="10" height="10" rx="5" transform="translate(224.431 1169.038)" fill="#f1ca08"/>
    <rect id="Rectangle_100-67" data-name="Rectangle 100" width="10" height="10" rx="5" transform="translate(247.059 1191.665)" fill="#f1ca08"/>
    <rect id="Rectangle_100-68" data-name="Rectangle 100" width="10" height="10" rx="5" transform="translate(156.548 1146.409)" fill="#f1ca08"/>
    <rect id="Rectangle_100-69" data-name="Rectangle 100" width="10" height="10" rx="5" transform="translate(179.176 1169.037)" fill="#f1ca08"/>
    <rect id="Rectangle_100-70" data-name="Rectangle 100" width="10" height="10" rx="5" transform="translate(201.804 1191.664)" fill="#f1ca08"/>
    <rect id="Rectangle_100-71" data-name="Rectangle 100" width="10" height="10" rx="5" transform="translate(224.431 1214.291)" fill="#f1ca08"/>
    <rect id="Rectangle_101" data-name="Rectangle 101" width="10" height="10" rx="5" transform="translate(382.823 1101.155)" fill="#dfdedb"/>
    <rect id="Rectangle_102" data-name="Rectangle 102" width="10" height="10" rx="5" transform="translate(360.195 1123.782)" fill="#dfdedb"/>
    <rect id="Rectangle_103" data-name="Rectangle 103" width="10" height="10" rx="5" transform="translate(337.568 1146.409)" fill="#dfdedb"/>
    <rect id="Rectangle_104" data-name="Rectangle 104" width="10" height="10" rx="5" transform="translate(314.941 1169.037)" fill="#dfdedb"/>
    <rect id="Rectangle_105" data-name="Rectangle 105" width="10" height="10" rx="5" transform="translate(292.313 1191.664)" fill="#dfdedb"/>
    <rect id="Rectangle_106" data-name="Rectangle 106" width="10" height="10" rx="5" transform="translate(405.451 1123.782)" fill="#dfdedb"/>
    <rect id="Rectangle_107" data-name="Rectangle 107" width="10" height="10" rx="5" transform="translate(382.823 1146.411)" fill="#dfdedb"/>
    <rect id="Rectangle_108" data-name="Rectangle 108" width="10" height="10" rx="5" transform="translate(360.196 1169.037)" fill="#dfdedb"/>
    <rect id="Rectangle_109" data-name="Rectangle 109" width="10" height="10" rx="5" transform="translate(337.569 1191.665)" fill="#dfdedb"/>
    <rect id="Rectangle_110" data-name="Rectangle 110" width="10" height="10" rx="5" transform="translate(314.941 1214.292)" fill="#dfdedb"/>
    <rect id="Rectangle_111" data-name="Rectangle 111" width="10" height="10" rx="5" transform="translate(405.451 1123.782)" fill="#dfdedb"/>
    <rect id="Rectangle_112" data-name="Rectangle 112" width="10" height="10" rx="5" transform="translate(382.823 1146.411)" fill="#dfdedb"/>
    <rect id="Rectangle_113" data-name="Rectangle 113" width="10" height="10" rx="5" transform="translate(360.196 1169.037)" fill="#dfdedb"/>
    <rect id="Rectangle_114" data-name="Rectangle 114" width="10" height="10" rx="5" transform="translate(337.569 1191.665)" fill="#dfdedb"/>
    <rect id="Rectangle_115" data-name="Rectangle 115" width="10" height="10" rx="5" transform="translate(314.941 1214.292)" fill="#dfdedb"/>
    <rect id="Rectangle_116" data-name="Rectangle 116" width="10" height="10" rx="5" transform="translate(269.685 1214.291)" fill="#f1ca08"/>
    <rect id="Rectangle_117" data-name="Rectangle 117" width="10" height="10" rx="5" transform="translate(247.058 1236.918)" fill="#f1ca08"/>
    <rect id="Rectangle_118" data-name="Rectangle 118" width="10" height="10" rx="5" transform="translate(428.078 1055.9)" fill="#f1ca08"/>
    <rect id="Rectangle_119" data-name="Rectangle 119" width="10" height="10" rx="5" transform="translate(405.451 1078.527)" fill="#f1ca08"/>
    <rect id="Rectangle_120" data-name="Rectangle 120" width="10" height="10" rx="5" transform="translate(292.314 1236.919)" fill="#dfdedb"/>
  </g>
</svg>
