<svg xmlns="http://www.w3.org/2000/svg" width="171.944" height="124.798" viewBox="0 0 171.944 124.798">
  <g id="team" transform="translate(0 -70.193)">
    <path id="Path_1093" data-name="Path 1093" d="M371.613,210.641v1.946a22.188,22.188,0,0,0,1.138,7.016l4.408,13.224h8.32V202.321h-5.547A8.32,8.32,0,0,0,371.613,210.641Z" transform="translate(-246.815 -87.756)" fill="#5a4146"/>
    <path id="Path_1094" data-name="Path 1094" d="M420.555,210.919l-4.693,16.425-22.186-19.413a5.547,5.547,0,0,1-5.547-5.547h0a8.32,8.32,0,0,1,8.32-8.32h19.413a5.547,5.547,0,0,1,5.547,5.547v5.213A22.176,22.176,0,0,1,420.555,210.919Z" transform="translate(-257.784 -82.272)" fill="#694b4b"/>
    <rect id="Rectangle_11997" data-name="Rectangle 11997" width="16.64" height="12.274" transform="translate(135.889 153.393)" fill="#e6af78"/>
    <path id="Path_1095" data-name="Path 1095" d="M404.645,323.029a22.005,22.005,0,0,0,16.64,0v-5.094h-16.64v5.094Z" transform="translate(-268.754 -164.543)" fill="#d29b6e"/>
    <path id="Path_1096" data-name="Path 1096" d="M396.27,341.791l-13.379-3.822-8.319,5.521-8.32-5.521-13.379,3.823a8.32,8.32,0,0,0-6.034,8v20.276a2.773,2.773,0,0,0,2.773,2.773h49.919a2.773,2.773,0,0,0,2.773-2.773V349.79A8.32,8.32,0,0,0,396.27,341.791Z" transform="translate(-230.361 -177.849)" fill="#f0f0f0"/>
    <path id="Path_1097" data-name="Path 1097" d="M426.708,383.809h-5.547l1.387-29.325h2.773Z" transform="translate(-279.723 -188.818)" fill="#747474"/>
    <path id="Path_1098" data-name="Path 1098" d="M396.511,265.928h0a16.64,16.64,0,0,1-16.64-16.64v-3.249a5.548,5.548,0,0,1,1.624-3.922l5.029-5.029a5.482,5.482,0,0,1,4.026-1.63c8.865.28,16.712,2.179,21,6.368a5.475,5.475,0,0,1,1.6,3.928v3.534A16.64,16.64,0,0,1,396.511,265.928Z" transform="translate(-252.3 -109.763)" fill="#f0c087"/>
    <path id="Path_1099" data-name="Path 1099" d="M388.191,246.726a5.536,5.536,0,0,1,5.879-5.538c5.6.357,13.906,1.293,19,3.744a5.361,5.361,0,0,0-1.521-3.107c-4.29-4.189-12.136-6.089-21-6.368h0a5.482,5.482,0,0,0-4.026,1.63l-5.029,5.029a5.546,5.546,0,0,0-1.625,3.922v3.249A16.636,16.636,0,0,0,391.9,265.265a16.5,16.5,0,0,1-3.709-10.432v-8.107Z" transform="translate(-252.3 -109.762)" fill="#e6af78"/>
    <path id="Path_1100" data-name="Path 1100" d="M478.968,372.026a8.32,8.32,0,0,1,2.437-5.883L488.543,359a8.287,8.287,0,0,1,1.518,4.758v20.276a2.773,2.773,0,0,1-2.773,2.773h-8.32V372.026Z" transform="translate(-318.117 -191.82)" fill="#dfdedb"/>
    <path id="Path_1101" data-name="Path 1101" d="M425.321,360.031h-2.773a1.387,1.387,0,0,1-1.387-1.387v-4.16h5.547v4.16A1.387,1.387,0,0,1,425.321,360.031Z" transform="translate(-279.723 -188.818)" fill="#747474"/>
    <g id="Group_1062" data-name="Group 1062" transform="translate(132.824 157.917)">
      <path id="Path_1102" data-name="Path 1102" d="M406.9,339.134l-4.7,3.59a1.664,1.664,0,0,1-2.47-.523l-4.217-7.7,1.7-2.589a1.109,1.109,0,0,1,1.682-.205Z" transform="translate(-395.512 -331.41)" fill="#f0f0f0"/>
      <path id="Path_1103" data-name="Path 1103" d="M429.419,339.135l4.7,3.591a1.664,1.664,0,0,0,2.47-.523l4.217-7.7-1.7-2.589a1.109,1.109,0,0,0-1.682-.205Z" transform="translate(-418.032 -331.411)" fill="#f0f0f0"/>
    </g>
    <path id="Path_1104" data-name="Path 1104" d="M51.01,239.47c-2.37-6.279-4.25-17.074-4.656-22.694-.772-10.695-8.832-19.413-19.727-19.413S7.673,206.081,6.9,216.776c-.406,5.62-2.286,16.415-4.656,22.694A2.762,2.762,0,0,0,3.689,243a52.969,52.969,0,0,0,14.484,4.284H35.081A53.435,53.435,0,0,0,49.566,243,2.762,2.762,0,0,0,51.01,239.47Z" transform="translate(-1.367 -84.463)" fill="#5a4146"/>
    <path id="Path_1105" data-name="Path 1105" d="M81.8,243a2.762,2.762,0,0,0,1.443-3.529c-2.37-6.279-4.25-17.074-4.655-22.694-.772-10.695-8.832-19.413-19.727-19.413h-.082c-8.36.034-11.314,11.435-4.118,15.689a7.65,7.65,0,0,0,.709.378l6.3,33.851h5.642A53.472,53.472,0,0,0,81.8,243Z" transform="translate(-33.604 -84.463)" fill="#694b4b"/>
    <path id="Path_1106" data-name="Path 1106" d="M45.32,327.447l-8.975-4.487A5.546,5.546,0,0,1,33.279,318v-8.32H16.64V318a5.546,5.546,0,0,1-3.066,4.961L4.6,327.447A8.319,8.319,0,0,0,0,334.888v16.389a2.773,2.773,0,0,0,2.773,2.773H47.146a2.773,2.773,0,0,0,2.773-2.773V334.888A8.319,8.319,0,0,0,45.32,327.447Z" transform="translate(0 -159.059)" fill="#e6af78"/>
    <path id="Path_1107" data-name="Path 1107" d="M57.572,320.77a21.92,21.92,0,0,0,8.469-1.711A5.466,5.466,0,0,1,65.891,318v-8.32H49.252V318a5.461,5.461,0,0,1-.15,1.067A22.031,22.031,0,0,0,57.572,320.77Z" transform="translate(-32.612 -159.059)" fill="#d29b6e"/>
    <path id="Path_1108" data-name="Path 1108" d="M45.32,356.265l-6.393-3.2a16.617,16.617,0,0,1-27.934,0l-6.393,3.2A8.319,8.319,0,0,0,0,363.706V380.1a2.773,2.773,0,0,0,2.773,2.773H47.146a2.773,2.773,0,0,0,2.773-2.773V363.706A8.319,8.319,0,0,0,45.32,356.265Z" transform="translate(0 -187.878)" fill="#f0f0f0"/>
    <path id="Path_1109" data-name="Path 1109" d="M41.639,272.245h0a16.643,16.643,0,0,1-16.5-14.486,2.8,2.8,0,0,1,1.482-2.883,23.151,23.151,0,0,0,4.909-3.315,16.014,16.014,0,0,0,3.795-4.993,2.745,2.745,0,0,1,3.127-1.52,47.781,47.781,0,0,1,18.824,9.645,2.683,2.683,0,0,1,.954,2.23A16.642,16.642,0,0,1,41.639,272.245Z" transform="translate(-16.679 -116.08)" fill="#f0c087"/>
    <path id="Path_1110" data-name="Path 1110" d="M57.273,254.692a47.778,47.778,0,0,0-18.824-9.645,2.745,2.745,0,0,0-3.127,1.52,15.877,15.877,0,0,1-2.534,3.7s0,.006,0,.009a14.886,14.886,0,0,1-1.258,1.285,23.138,23.138,0,0,1-4.909,3.315,2.8,2.8,0,0,0-1.482,2.883,16.666,16.666,0,0,0,13.979,14.3,12.142,12.142,0,0,1-5.8-10.9V257.2c.63-.465,1.264-.929,1.9-1.5a22.078,22.078,0,0,0,3.966-4.679,41.881,41.881,0,0,1,14.454,7.864c.526.461,1.83,1.663,3.356,3.095a16.513,16.513,0,0,0,1.23-5.057A2.683,2.683,0,0,0,57.273,254.692Z" transform="translate(-16.679 -116.079)" fill="#e6af78"/>
    <path id="Path_1111" data-name="Path 1111" d="M1.691,369.859a8.3,8.3,0,0,0-1.691,5v16.389a2.773,2.773,0,0,0,2.773,2.773h8.32V380.047a5.547,5.547,0,0,0-2.082-4.331Z" transform="translate(0 -199.03)" fill="#dfdedb"/>
    <path id="Path_1112" data-name="Path 1112" d="M202.6,334.63l-23.2-8.438-16.64,5.547-16.64-5.547-23.2,8.438a11.093,11.093,0,0,0-7.3,10.425v17.19a2.773,2.773,0,0,0,2.773,2.773h88.745a2.773,2.773,0,0,0,2.773-2.773v-17.19A11.093,11.093,0,0,0,202.6,334.63Z" transform="translate(-77.08 -170.028)" fill="#f1ca08"/>
    <path id="Path_1113" data-name="Path 1113" d="M242.125,359.226l-2.641,27.732h11.093l-2.641-27.732Z" transform="translate(-159.059 -191.968)" fill="#333"/>
    <path id="Path_1114" data-name="Path 1114" d="M249.314,352.066H243.49a1.941,1.941,0,0,1-1.941-1.941v-7.415h9.706v7.415A1.941,1.941,0,0,1,249.314,352.066Z" transform="translate(-160.43 -180.998)" fill="#1e1e1e"/>
    <path id="Path_1115" data-name="Path 1115" d="M360.493,359.855a11.08,11.08,0,0,1,2.985,7.558V384.6a2.773,2.773,0,0,1-2.773,2.773H346.839V378.1a11.092,11.092,0,0,1,3.249-7.844Z" transform="translate(-230.361 -192.385)" fill="#d5b930"/>
    <path id="Path_1116" data-name="Path 1116" d="M226.174,98.972V75.74a5.547,5.547,0,0,0-5.547-5.547h-33.28a22.187,22.187,0,0,0-22.186,22.186v6.593a27.73,27.73,0,0,0,1.423,8.77l.923,2.77a8.319,8.319,0,0,1,.427,2.631v1.423H223.4v-1.423a8.319,8.319,0,0,1,.427-2.631l.923-2.77A27.724,27.724,0,0,0,226.174,98.972Z" transform="translate(-109.695 0)" fill="#5a4146"/>
    <path id="Path_1117" data-name="Path 1117" d="M206.452,81.459a11.266,11.266,0,0,0,11.266,11.266h1.56l.753,21.84h30.793v-1.423a8.319,8.319,0,0,1,.427-2.631l.923-2.77a27.73,27.73,0,0,0,1.423-8.77V75.74a5.547,5.547,0,0,0-5.547-5.547H217.718A11.266,11.266,0,0,0,206.452,81.459Z" transform="translate(-137.12 0)" fill="#694b4b"/>
    <rect id="Rectangle_11998" data-name="Rectangle 11998" width="33.281" height="24.959" transform="translate(69.332 136.753)" fill="#e6af78"/>
    <path id="Path_1118" data-name="Path 1118" d="M206.451,277.764a33.086,33.086,0,0,0,33.279,0v-9.378h-33.28v9.378Z" transform="translate(-137.119 -131.634)" fill="#d29b6e"/>
    <g id="Group_1063" data-name="Group 1063" transform="translate(63.786 151.547)">
      <path id="Path_1119" data-name="Path 1119" d="M212.122,322.607l-8.845,8.845a2.773,2.773,0,0,1-4.17-.284l-9.171-12.084,2.4-5.055a2.773,2.773,0,0,1,3.96-1.172Z" transform="translate(-189.936 -312.443)" fill="#d5b930"/>
      <path id="Path_1120" data-name="Path 1120" d="M256,322.607l8.845,8.845a2.773,2.773,0,0,0,4.17-.284l9.171-12.084-2.4-5.055a2.773,2.773,0,0,0-3.96-1.172Z" transform="translate(-233.814 -312.443)" fill="#d5b930"/>
    </g>
    <path id="Path_1121" data-name="Path 1121" d="M201.152,189.539h0a27.733,27.733,0,0,1-27.733-27.733v-3.249a5.548,5.548,0,0,1,1.624-3.922l2.3-2.3a5.547,5.547,0,0,0,1.624-3.922v-6.648a2.751,2.751,0,0,1,2.112-2.7c6.559-1.549,26.97-5.219,40.86,5a3.558,3.558,0,0,1,1.4,2.873v1.473a5.548,5.548,0,0,0,1.624,3.922l2.3,2.3a5.547,5.547,0,0,1,1.624,3.922v3.249A27.732,27.732,0,0,1,201.152,189.539Z" transform="translate(-115.18 -44.467)" fill="#f0c087"/>
    <path id="Path_1122" data-name="Path 1122" d="M221.937,144.08c-9.769-7.185-22.746-7.5-31.878-6.512a74.8,74.8,0,0,0-8.981,1.515,2.751,2.751,0,0,0-2.112,2.7v6.648a5.547,5.547,0,0,1-1.625,3.922l-2.3,2.3a5.547,5.547,0,0,0-1.625,3.922v3.249A27.723,27.723,0,0,0,197.8,189.327a27.618,27.618,0,0,1-7.742-19.191V149.865a5.55,5.55,0,0,1,4.878-5.509c6.655-.835,18.845-1.336,28.4,4.07v-1.474A3.557,3.557,0,0,0,221.937,144.08Z" transform="translate(-115.18 -44.477)" fill="#e6af78"/>
    <path id="Path_1123" data-name="Path 1123" d="M118.6,359.855a11.08,11.08,0,0,0-2.985,7.558V384.6a2.773,2.773,0,0,0,2.773,2.773h13.866V378.1A11.092,11.092,0,0,0,129,370.261Z" transform="translate(-76.787 -192.385)" fill="#d5b930"/>
  </g>
</svg>
