<svg xmlns="http://www.w3.org/2000/svg" width="854" height="793" viewBox="0 0 854 793">
  <g id="Group_1076" data-name="Group 1076" transform="translate(-19.999 -1881)">
    <path id="Path_409" data-name="Path 409" d="M811.238,491.84C741.906,390.032,620.449,373.724,546.871,384.307s-155.187,5.743-218.133-76.576S152.285,217.685,90.047,283.973C22.729,355.666-68.893,529.879,53.324,732.464,131.193,861.54,250.158,946.213,353.371,990.22s189.377,60.3,240.783,16.394,21.491-94.033,10.973-116.541-26.679-88.911,91.463-112.684C837.285,749.076,888.792,605.718,811.238,491.84Z" transform="translate(26.645 1641.5)" fill="#dfdedb" opacity="0.5"/>
    <g id="Group_505" data-name="Group 505" transform="translate(-1899.379 922.711)">
      <g id="Group_472" data-name="Group 472" transform="translate(2177.379 1279.594)">
        <path id="Rectangle_80" data-name="Rectangle 80" d="M10.477,0H420.461a10.478,10.478,0,0,1,10.478,10.478V77.344a10.478,10.478,0,0,1-10.478,10.478H10.478A10.478,10.478,0,0,1,0,77.344V10.477A10.477,10.477,0,0,1,10.477,0Z" transform="translate(0 0)" fill="#f3f3f3"/>
        <path id="Path_245" data-name="Path 245" d="M2269.7,1339.86h-84.154a8.17,8.17,0,0,0-8.17,8.17v71.483a8.17,8.17,0,0,0,8.17,8.169H2269.7Z" transform="translate(-2177.379 -1339.86)" fill="#f1ca08"/>
        <g id="Group_468" data-name="Group 468" transform="translate(116.134 25.823)">
          <g id="Group_467" data-name="Group 467">
            <line id="Line_94" data-name="Line 94" x2="92.187" fill="none" stroke="#fbe196" stroke-miterlimit="10" stroke-width="5.239"/>
            <line id="Line_95" data-name="Line 95" x2="58.489" transform="translate(102.118)" fill="none" stroke="#fbe196" stroke-miterlimit="10" stroke-width="5.239"/>
            <line id="Line_96" data-name="Line 96" x2="11.985" transform="translate(24.373 36.457)" fill="none" stroke="#fbe196" stroke-miterlimit="10" stroke-width="5.239"/>
            <line id="Line_97" data-name="Line 97" x2="36.767" transform="translate(53.65 12.151)" fill="none" stroke="#fbe196" stroke-miterlimit="10" stroke-width="5.239"/>
            <line id="Line_98" data-name="Line 98" x2="20.695" transform="translate(69.721 24.307)" fill="none" stroke="#fbe196" stroke-miterlimit="10" stroke-width="5.239"/>
            <line id="Line_99" data-name="Line 99" x2="44.936" transform="translate(45.481 36.457)" fill="none" stroke="#fbe196" stroke-miterlimit="10" stroke-width="5.239"/>
            <line id="Line_100" data-name="Line 100" x2="8.441" transform="translate(35.404 12.151)" fill="none" stroke="#fbe196" stroke-miterlimit="10" stroke-width="5.239"/>
            <line id="Line_101" data-name="Line 101" x2="26.754" transform="translate(0.273 12.151)" fill="none" stroke="#fbe196" stroke-miterlimit="10" stroke-width="5.239"/>
            <line id="Line_102" data-name="Line 102" x2="61.279" transform="translate(0.273 24.307)" fill="none" stroke="#fbe196" stroke-miterlimit="10" stroke-width="5.239"/>
            <line id="Line_103" data-name="Line 103" x2="14.5" transform="translate(0.273 36.457)" fill="none" stroke="#fbe196" stroke-miterlimit="10" stroke-width="5.239"/>
            <line id="Line_104" data-name="Line 104" x2="44.934" transform="translate(99.95 12.151)" fill="none" stroke="#fbe196" stroke-miterlimit="10" stroke-width="5.239"/>
            <line id="Line_105" data-name="Line 105" y1="0.092" x2="58.614" transform="translate(114.247 24.215)" fill="none" stroke="#fbe196" stroke-miterlimit="10" stroke-width="5.239"/>
            <line id="Line_106" data-name="Line 106" x2="36.765" transform="translate(108.12 36.457)" fill="none" stroke="#fbe196" stroke-miterlimit="10" stroke-width="5.239"/>
            <line id="Line_107" data-name="Line 107" x2="17.9" transform="translate(154.96 12.151)" fill="none" stroke="#fbe196" stroke-miterlimit="10" stroke-width="5.239"/>
            <line id="Line_108" data-name="Line 108" x2="8.443" transform="translate(98.041 24.307)" fill="none" stroke="#fbe196" stroke-miterlimit="10" stroke-width="5.239"/>
            <line id="Line_109" data-name="Line 109" x2="12.46" transform="translate(99.912 36.457)" fill="none" stroke="#fbe196" stroke-miterlimit="10" stroke-width="5.239"/>
          </g>
        </g>
        <g id="Group_469" data-name="Group 469" transform="translate(375.845 20.378)">
          <path id="Path_246" data-name="Path 246" d="M2675.739,1365.995a16.345,16.345,0,0,0-16.326,16.327c0,8.407,13.265,24.081,14.777,25.843l1.549,1.8,1.55-1.8c1.512-1.761,14.777-17.436,14.777-25.843A16.345,16.345,0,0,0,2675.739,1365.995Zm0,37.648c-4.454-5.481-12.241-16.143-12.241-21.321a12.242,12.242,0,1,1,24.484,0C2687.981,1387.494,2680.194,1398.16,2675.739,1403.643Z" transform="translate(-2659.413 -1365.995)" fill="#fbe196"/>
          <path id="Path_247" data-name="Path 247" d="M2678,1376.381a8.169,8.169,0,1,0,8.169,8.17A8.178,8.178,0,0,0,2678,1376.381Zm0,12.254a4.085,4.085,0,1,1,4.085-4.084A4.089,4.089,0,0,1,2678,1388.635Z" transform="translate(-2661.707 -1368.283)" fill="#fbe196"/>
        </g>
        <g id="Group_470" data-name="Group 470" transform="translate(318.625 19.879)">
          <path id="Path_248" data-name="Path 248" d="M2608.512,1410.328a22.486,22.486,0,1,0-22.486-22.486A22.514,22.514,0,0,0,2608.512,1410.328Zm0-40.887a18.4,18.4,0,1,1-18.4,18.4A18.423,18.423,0,0,1,2608.512,1369.441Z" transform="translate(-2586.026 -1365.356)" fill="#fbe196"/>
          <path id="Path_249" data-name="Path 249" d="M2623.9,1396.876l-7.571-7.571v-13.451h-4.085V1391l8.768,8.77Z" transform="translate(-2591.801 -1367.669)" fill="#fbe196"/>
        </g>
        <g id="Group_471" data-name="Group 471" transform="translate(20.424 24.508)">
          <path id="Path_250" data-name="Path 250" d="M2214.362,1375.38a4.084,4.084,0,1,0-4.085,4.085A4.085,4.085,0,0,0,2214.362,1375.38Z" transform="translate(-2204.15 -1371.293)" fill="#fff"/>
          <path id="Path_251" data-name="Path 251" d="M2205.616,1410.943h4.084v-12.255h2.043v12.255h4.084v-22.466h4.086v-4.084h-12.255a4.09,4.09,0,0,0-4.085,4.084v10.212h2.043Z" transform="translate(-2203.573 -1374.179)" fill="#fff"/>
          <path id="Path_252" data-name="Path 252" d="M2261.511,1375.378a4.084,4.084,0,1,0-4.084,4.084A4.085,4.085,0,0,0,2261.511,1375.378Z" transform="translate(-2214.537 -1371.293)" fill="#fff"/>
          <path id="Path_253" data-name="Path 253" d="M2257.738,1384.39h-12.254v4.085h4.084v22.466h4.085v-12.254h2.043v12.254h4.084v-12.254h2.043v-10.212A4.091,4.091,0,0,0,2257.738,1384.39Z" transform="translate(-2212.806 -1374.178)" fill="#fff"/>
          <path id="Path_254" data-name="Path 254" d="M2237.937,1375.38a4.085,4.085,0,1,0-4.085,4.085A4.084,4.084,0,0,0,2237.937,1375.38Z" transform="translate(-2209.344 -1371.293)" fill="#fff"/>
          <path id="Path_255" data-name="Path 255" d="M2227.148,1388.477v8.17h2.042v14.3h8.17v-14.3h2.042v-8.17a4.089,4.089,0,0,0-4.085-4.084h-4.084A4.09,4.09,0,0,0,2227.148,1388.477Z" transform="translate(-2208.766 -1374.179)" fill="#fff"/>
        </g>
      </g>
      <g id="Group_487" data-name="Group 487" transform="translate(2267.346 1261.702)">
        <g id="Group_474" data-name="Group 474" transform="translate(0 160.095)">
          <g id="Group_473" data-name="Group 473">
            <path id="Path_256" data-name="Path 256" d="M2715,1761.486h14.377L2705.657,1531.8h-20.841Z" transform="translate(-2379.131 -1524.348)" fill="#1e1e1e"/>
            <path id="Path_257" data-name="Path 257" d="M2686.6,1542.391l9.142,69.558,10.842-74.962-.531-5.182h-18.217Z" transform="translate(-2379.523 -1524.348)" fill="#212957"/>
            <path id="Path_258" data-name="Path 258" d="M2468.016,1761.486h14.37L2458.672,1531.8h-20.841Z" transform="translate(-2324.722 -1524.348)" fill="#1e1e1e"/>
            <path id="Path_259" data-name="Path 259" d="M2439.615,1542.391l9.139,69.558,10.849-74.962-.538-5.182h-18.217Z" transform="translate(-2325.115 -1524.348)" fill="#747474"/>
            <path id="Path_260" data-name="Path 260" d="M2307.139,1761.486h-14.375l23.715-229.682h20.842Z" transform="translate(-2292.764 -1524.348)" fill="#1e1e1e"/>
            <path id="Path_261" data-name="Path 261" d="M2340.245,1542.391l-27.894,70.883,7.91-76.287.532-5.182h18.217Z" transform="translate(-2297.079 -1524.348)" fill="#747474"/>
            <rect id="Rectangle_81" data-name="Rectangle 81" width="151.303" height="13.422" transform="translate(3.596)" fill="#1e1e1e"/>
            <rect id="Rectangle_82" data-name="Rectangle 82" width="196.776" height="13.422" transform="translate(146.885)" fill="#747474"/>
          </g>
        </g>
        <g id="Group_477" data-name="Group 477" transform="translate(144.441 80.157)">
          <path id="Path_262" data-name="Path 262" d="M2641.051,1516.109c.018-.035.041-.076.058-.109l-.058-3.392H2500.619V1516s-.022.074,0,.109l.358.631c1.805,2.94,5.042,3.469,8.75,3.469h122.21c3.709,0,6.942-.529,8.752-3.469Z" transform="translate(-2482.992 -1440.18)" fill="#d0dee6"/>
          <path id="Path_263" data-name="Path 263" d="M2637.322,1517.056a.125.125,0,0,0,0,.094l.349.513a5.7,5.7,0,0,0,2.054,1.726h21.353c3.568,0,6.681-.426,8.418-2.8l.336-.517a.732.732,0,0,0,.064-.086l-.037-1.669h-32.536Z" transform="translate(-2513.107 -1440.556)" fill="#b6c2c9"/>
          <g id="Group_475" data-name="Group 475" transform="translate(35.088 73.212)">
            <rect id="Rectangle_83" data-name="Rectangle 83" width="70.17" height="2.398" fill="#b6c2c9"/>
          </g>
          <g id="Group_476" data-name="Group 476">
            <path id="Path_264" data-name="Path 264" d="M2601.451,1492.022l-18.207-69a4.586,4.586,0,0,0-4.165-3.3h-98.525a2.455,2.455,0,0,0-2.425,3.3l18.206,69Z" transform="translate(-2478.015 -1419.717)" fill="#212957"/>
            <path id="Path_265" data-name="Path 265" d="M2503.729,1486.412l-14.951-56.667h90.944l14.951,56.667Z" transform="translate(-2480.386 -1421.926)" fill="#fcecbc"/>
          </g>
        </g>
        <g id="Group_486" data-name="Group 486" transform="translate(152.616)">
          <g id="Group_485" data-name="Group 485">
            <path id="Path_266" data-name="Path 266" d="M2730.873,1577.183s17.828,11.036,14.432,31.411-11.885,36.5-51.785,31.411-73.858-23.771-73.858-23.771,18.676,6.792,17.828,35.655,5.093,85.743,10.187,95.081,9.338,22.072,9.338,22.072h-42.447L2629,1744.424l-44.994-163.845s-8.49-28.863,22.072-21.224S2730.873,1577.183,2730.873,1577.183Z" transform="translate(-2509.301 -1370.038)" fill="#1e1e1e"/>
            <path id="Path_267" data-name="Path 267" d="M2657.438,1586.153l-79.8-14.432s-25.468-6.791-30.562,16.979c-5.937,27.706-18.676,151.11-18.676,151.11l-.849,5.943-39.051,21.224h59.426l-4.245-18.677,35.655-125.643s61.124,17.828,81.5,17.828,35.655-7.64,35.655-11.036S2671.87,1584.454,2657.438,1586.153Z" transform="translate(-2488.5 -1372.848)" fill="#333"/>
            <g id="Group_478" data-name="Group 478" transform="translate(60.043 146.783)">
              <path id="Path_268" data-name="Path 268" d="M2606.5,1531.89a115.29,115.29,0,0,0-19.738-5.731c-2.865-.318-5.093-8.276-3.5-13.37,1.053-3.371,2.107-6.323,3.713-7.289a2.658,2.658,0,0,1,2.972.285c3.5,2.228,17.51,14.326,17.51,14.326S2611.6,1534.118,2606.5,1531.89Z" transform="translate(-2569.302 -1505.167)" fill="#f7b68b"/>
              <path id="Path_269" data-name="Path 269" d="M2566.417,1507.789l16.765-2.195-3.713,7.289,2.228,11.142-9.232,1.592s-1.272-1.592.319-2.228,3.82-1.592,3.82-1.592-4.457-.636-6.366-.955-2.229-.955-2.229-1.91,1.91-1.591,1.91-1.591-3.5-1.273-3.82-2.228-.955-2.229-.319-3.184S2565.462,1508.426,2566.417,1507.789Z" transform="translate(-2565.508 -1505.261)" fill="#ec9568"/>
            </g>
            <path id="Path_270" data-name="Path 270" d="M2708.85,1590.954s20.375,58.576-24.618,55.181-85.743-23.77-89.138-27.166,0,23.77-11.037,47.54-27.166,83.2-27.166,83.2l-16.13-.848,18.677-150.262s.91-23.588,34.806-21.224c36.5,2.547,70.462,3.4,70.462,3.4Z" transform="translate(-2500.013 -1374.254)" fill="#333"/>
            <path id="Path_271" data-name="Path 271" d="M2737.679,1374.4s-7.333,11.559-15.334,12.167-12-18.251-12-31.026,14-24.943,15.334-28.593,15.333,8.517,15.333,19.468S2737.679,1371.359,2737.679,1374.4Z" transform="translate(-2537.371 -1318.978)" fill="#ec9568"/>
            <path id="Path_272" data-name="Path 272" d="M2784.714,1428.2s13.317,15.434-6.079,50.032-28.134,53.7-30.755,53.857-16.231.215-19.68-5.609-6.389-10.9-5.18-13.917,30.139-79.988,33.06-87.1C2762.009,1411.022,2780.683,1425.51,2784.714,1428.2Z" transform="translate(-2540.103 -1339.436)" fill="#b0bfde"/>
            <path id="Path_273" data-name="Path 273" d="M2693.521,1424.015l18.464-9.551,34.382-.636s17.828,2.547,25.468,19.1c2.628,5.694-14.347,71.68-16.342,82.984-2.547,14.432,15.62,35.554,11.885,39.9-13.831,16.093-84.045-11.885-84.045-11.885S2680.787,1434.2,2693.521,1424.015Z" transform="translate(-2531.375 -1338.263)" fill="#d1dbea"/>
            <path id="Path_274" data-name="Path 274" d="M2687.749,1428.46s15.918,12.734,3.184,50.3-17.827,57.94-20.375,58.577-15.918,3.183-20.375-1.91-8.277-9.551-7.64-12.734,25.468-71.947,28.652-78.951S2683.292,1426.55,2687.749,1428.46Z" transform="translate(-2522.419 -1341.435)" fill="#b0bfde"/>
            <path id="Path_275" data-name="Path 275" d="M2753.374,1382.4l-2.08,28.068s1.067,3.907-7.8,4.677c-11.955,1.04-17.152-3.638-17.152-3.638a64.262,64.262,0,0,0,5.717-30.667C2731.023,1363.168,2753.374,1382.4,2753.374,1382.4Z" transform="translate(-2540.896 -1329.35)" fill="#ec9568"/>
            <path id="Path_276" data-name="Path 276" d="M2729.45,1317.465s15.186-3.644,30.147,7.8c8.836,6.757,14.034,18.711,9.356,28.587s-15.074,22.87-20.272,22.87-16.633-7.8-18.192-10.915-1.559-5.2-2.6-11.955-4.678-4.677-4.678-3.119-2.079,6.238-3.119,3.119S2697.744,1328.381,2729.45,1317.465Z" transform="translate(-2537.763 -1316.913)" fill="#1e1e1e"/>
            <path id="Path_277" data-name="Path 277" d="M2653.13,1520.841c-3.1,1.379-36.5.849-38.2,3.4s-3.4,11.885-3.4,11.885,9.338,12.734,28.863,18.677,18.677,6.791,28.016-11.885S2660.771,1517.446,2653.13,1520.841Z" transform="translate(-2515.603 -1361.652)" fill="#b0bfde"/>
            <g id="Group_484" data-name="Group 484" transform="translate(102.662 140.626)">
              <g id="Group_479" data-name="Group 479" transform="translate(131.17 23.418)">
                <path id="Path_278" data-name="Path 278" d="M2794.548,1658.866a20.122,20.122,0,0,0,13.314-4.813c6.688-5.816,9.582-16.164,8.605-30.743-.652-9.844-4.526-19.805-8.626-30.361-6.91-17.751-14.73-37.869-10.64-64.474l-7.6-1.17c-4.4,28.646,4.18,50.705,11.064,68.431,4.052,10.417,7.555,19.42,8.133,28.081.785,11.827-1.254,20.254-5.916,24.368a12.741,12.741,0,0,1-10.164,2.858l-1.542,7.536A17.925,17.925,0,0,0,2794.548,1658.866Z" transform="translate(-2788.398 -1527.305)" fill="#1e1e1e"/>
              </g>
              <g id="Group_482" data-name="Group 482" transform="translate(5.156 182.018)">
                <g id="Group_480" data-name="Group 480" transform="translate(6.101 33.973)">
                  <path id="Path_279" data-name="Path 279" d="M2718.554,1774.286l-7.489,11.423,62.9,20.148s4.2-4.017-11.233-12.085C2744.767,1784.365,2718.554,1774.286,2718.554,1774.286Z" transform="translate(-2651.449 -1774.286)" fill="#f1ca08"/>
                  <path id="Path_280" data-name="Path 280" d="M2690.54,1774.286l7.488,11.423-62.9,20.148s-4.2-4.017,11.234-12.085C2664.331,1784.365,2690.54,1774.286,2690.54,1774.286Z" transform="translate(-2634.606 -1774.286)" fill="#f1ca08"/>
                </g>
                <rect id="Rectangle_84" data-name="Rectangle 84" width="13.144" height="46.797" transform="translate(61.048)" fill="#f1ca08"/>
                <g id="Group_481" data-name="Group 481" transform="translate(13.312 36.382)">
                  <path id="Path_281" data-name="Path 281" d="M2719.936,1777.376l-6.406,10.9,53.843,19.226s3.6-3.832-9.61-11.537C2742.375,1786.991,2719.936,1777.376,2719.936,1777.376Z" transform="translate(-2659.203 -1777.376)" fill="#f1ca08"/>
                  <path id="Path_282" data-name="Path 282" d="M2691.741,1777.376l6.4,10.9L2644.3,1807.5s-3.594-3.832,9.615-11.537C2669.3,1786.991,2691.741,1777.376,2691.741,1777.376Z" transform="translate(-2643.854 -1777.376)" fill="#f1ca08"/>
                </g>
                <path id="Path_283" data-name="Path 283" d="M2774.767,1820.275a4.568,4.568,0,1,0,4.566-4.575A4.566,4.566,0,0,0,2774.767,1820.275Z" transform="translate(-2659.381 -1749.436)" fill="#747474"/>
                <path id="Path_284" data-name="Path 284" d="M2640.954,1820.275a4.571,4.571,0,1,0,4.575-4.575A4.572,4.572,0,0,0,2640.954,1820.275Z" transform="translate(-2629.903 -1749.436)" fill="#1e1e1e"/>
                <path id="Path_285" data-name="Path 285" d="M2788.948,1820.275a4.568,4.568,0,1,0,4.566-4.575A4.563,4.563,0,0,0,2788.948,1820.275Z" transform="translate(-2662.505 -1749.436)" fill="#747474"/>
                <path id="Path_286" data-name="Path 286" d="M2626.781,1820.275a4.563,4.563,0,1,0,4.568-4.575A4.565,4.565,0,0,0,2626.781,1820.275Z" transform="translate(-2626.781 -1749.436)" fill="#747474"/>
              </g>
              <rect id="Rectangle_85" data-name="Rectangle 85" width="9.614" height="16.829" transform="translate(68.138 164.868)" fill="#1e1e1e"/>
              <path id="Path_287" data-name="Path 287" d="M2698.308,1694.668a9.377,9.377,0,0,0,9.374,9.372h5.29a9.376,9.376,0,0,0,9.373-9.372h0a9.373,9.373,0,0,0-9.373-9.378h-5.29a9.374,9.374,0,0,0-9.374,9.378Z" transform="translate(-2637.382 -1538.69)" fill="#1e1e1e"/>
              <path id="Path_288" data-name="Path 288" d="M2621.969,1679.846c-.223-1.1-.353-8.025-.353-9.214,0-7.57,4.887-13.7,10.928-13.7h121.783c6.03,0,10.926,6.132,10.926,13.7,0,1.189-.13,8.109-.365,9.214Z" transform="translate(-2620.487 -1532.443)" fill="#f1ca08"/>
              <path id="Path_289" data-name="Path 289" d="M2766.058,1689.893c0,2.319-1.351,4.2-3.029,4.2H2623.2c-1.679,0-3.03-1.882-3.03-4.2h0c0-2.315,1.351-4.194,3.03-4.194h139.831c1.679,0,3.029,1.879,3.029,4.194Z" transform="translate(-2620.168 -1538.78)" fill="#1e1e1e"/>
              <g id="Group_483" data-name="Group 483" transform="translate(83.63 23.418)">
                <path id="Path_290" data-name="Path 290" d="M2733.576,1658.866a20.12,20.12,0,0,0,13.313-4.813c6.688-5.816,9.582-16.164,8.605-30.743-.652-9.844-4.526-19.805-8.626-30.361-6.91-17.751-14.73-37.869-10.64-64.474l-7.6-1.17c-4.4,28.646,4.18,50.705,11.064,68.431,4.052,10.417,7.555,19.42,8.133,28.081.785,11.827-1.254,20.254-5.917,24.368a12.74,12.74,0,0,1-10.164,2.858l-1.542,7.536A17.909,17.909,0,0,0,2733.576,1658.866Z" transform="translate(-2727.426 -1527.305)" fill="#1e1e1e"/>
              </g>
              <path id="Path_291" data-name="Path 291" d="M2712.347,1564.577a191.838,191.838,0,0,0,73.279,0,5,5,0,0,0,3.912-4.634v-59.57a3.078,3.078,0,0,0-3.912-3.024,191.789,191.789,0,0,1-73.279,0,3.079,3.079,0,0,0-3.912,3.024v59.57A5,5,0,0,0,2712.347,1564.577Z" transform="translate(-2639.613 -1497.271)" fill="#1e1e1e"/>
            </g>
          </g>
        </g>
      </g>
      <g id="Group_492" data-name="Group 492" transform="translate(2254.692 1477.637)">
        <g id="Group_488" data-name="Group 488" transform="translate(0 64.918)">
          <path id="Path_292" data-name="Path 292" d="M2342.509,1760.185s-6.948-24.814-17.868-33.251-18.857-20.348-33.248-25.807-17.869-15.386-12.408-18.86,23.325-13.4,45.162,9.431,27.3,40.7,26.8,62.036S2343.5,1772.592,2342.509,1760.185Z" transform="translate(-2276.535 -1677.117)" fill="#dfdedb"/>
          <path id="Path_293" data-name="Path 293" d="M2289.859,1688.6s21.836,6.453,31.764,13.9,28.288,28.289,29.28,48.637" transform="translate(-2279.47 -1679.647)" fill="none" stroke="#747474" stroke-miterlimit="10" stroke-width="3.786"/>
        </g>
        <g id="Group_490" data-name="Group 490" transform="translate(35.521 0)">
          <path id="Path_294" data-name="Path 294" d="M2358.5,1749.784s11.252-31.762,15.882-41.688,3.969-33.752-3.31-43.015-19.189-23.159-13.9-43.674,2.648-33.085-7.279-25.145-27.361,25.451-27.793,53.6c-.33,21.508,6.014,34.1,17.868,49.631C2349.567,1712.065,2359.162,1735.225,2358.5,1749.784Z" transform="translate(-2322.092 -1593.857)" fill="#d1dbea"/>
          <g id="Group_489" data-name="Group 489" transform="translate(17.423 11.785)">
            <path id="Path_295" data-name="Path 295" d="M2367.872,1745.685c.245-1.309,5.945-32.223-.074-45.265-1.378-2.983-3.219-6.606-5.173-10.439-6.406-12.584-15.179-29.821-16.081-41.826-1.446-19.291,10.638-37.905,10.76-38.091l-1.658-1.091c-.514.782-12.577,19.372-11.08,39.332.931,12.4,9.447,29.132,16.289,42.577,1.942,3.817,3.779,7.422,5.14,10.373,5.755,12.466-.016,43.752-.076,44.066Z" transform="translate(-2344.438 -1608.972)" fill="#94b5e6"/>
          </g>
        </g>
        <g id="Group_491" data-name="Group 491" transform="translate(74.41 86.85)">
          <path id="Path_296" data-name="Path 296" d="M2413.794,1727.174c12.9-2.482,13.9-17.37,3.969-20.348s-26.3-2.481-34.244,7.941c-9.206,12.082-12.9,33.748-9.926,49.133s0-5.956,6.453-16.378S2403.149,1729.221,2413.794,1727.174Z" transform="translate(-2372.104 -1705.245)" fill="#aec5f3"/>
          <path id="Path_297" data-name="Path 297" d="M2419.613,1717.747s-17.866-3.474-30.273,8.436c-10.74,10.314-15.384,23.161-17.37,36.4" transform="translate(-2371.969 -1707.895)" fill="none" stroke="#161711" stroke-miterlimit="10" stroke-width="3.726"/>
        </g>
        <path id="Path_298" data-name="Path 298" d="M2339.734,1816.186h35.735l5.956-57.57h-47.643Z" transform="translate(-2289.146 -1630.153)" fill="#f1ca08"/>
      </g>
      <g id="Group_498" data-name="Group 498" transform="translate(2177.379 1171.997)">
        <path id="Rectangle_86" data-name="Rectangle 86" d="M10.478,0H420.461a10.478,10.478,0,0,1,10.478,10.478V77.344a10.477,10.477,0,0,1-10.477,10.477H10.478A10.478,10.478,0,0,1,0,77.344V10.478A10.478,10.478,0,0,1,10.478,0Z" transform="translate(0)" fill="#f3f3f3"/>
        <path id="Path_299" data-name="Path 299" d="M2269.7,1201.864h-84.155a8.17,8.17,0,0,0-8.17,8.169v71.483a8.171,8.171,0,0,0,8.17,8.17H2269.7Z" transform="translate(-2177.379 -1201.864)" fill="#1e1e1e"/>
        <g id="Group_494" data-name="Group 494" transform="translate(116.136 25.823)">
          <g id="Group_493" data-name="Group 493">
            <line id="Line_110" data-name="Line 110" x2="92.185" fill="none" stroke="#fbe196" stroke-miterlimit="10" stroke-width="5.239"/>
            <line id="Line_111" data-name="Line 111" x2="58.487" transform="translate(102.118)" fill="none" stroke="#fbe196" stroke-miterlimit="10" stroke-width="5.239"/>
            <line id="Line_112" data-name="Line 112" x2="11.983" transform="translate(24.373 36.457)" fill="none" stroke="#fbe196" stroke-miterlimit="10" stroke-width="5.239"/>
            <line id="Line_113" data-name="Line 113" x2="36.767" transform="translate(53.648 12.15)" fill="none" stroke="#fbe196" stroke-miterlimit="10" stroke-width="5.239"/>
            <line id="Line_114" data-name="Line 114" x2="20.695" transform="translate(69.719 24.307)" fill="none" stroke="#fbe196" stroke-miterlimit="10" stroke-width="5.239"/>
            <line id="Line_115" data-name="Line 115" x2="44.936" transform="translate(45.478 36.457)" fill="none" stroke="#fbe196" stroke-miterlimit="10" stroke-width="5.239"/>
            <line id="Line_116" data-name="Line 116" x2="8.443" transform="translate(35.402 12.15)" fill="none" stroke="#fbe196" stroke-miterlimit="10" stroke-width="5.239"/>
            <line id="Line_117" data-name="Line 117" x2="26.754" transform="translate(0.271 12.15)" fill="none" stroke="#fbe196" stroke-miterlimit="10" stroke-width="5.239"/>
            <line id="Line_118" data-name="Line 118" x2="61.279" transform="translate(0.271 24.307)" fill="none" stroke="#fbe196" stroke-miterlimit="10" stroke-width="5.239"/>
            <line id="Line_119" data-name="Line 119" x2="14.5" transform="translate(0.271 36.457)" fill="none" stroke="#fbe196" stroke-miterlimit="10" stroke-width="5.239"/>
            <line id="Line_120" data-name="Line 120" x2="44.936" transform="translate(99.948 12.15)" fill="none" stroke="#fbe196" stroke-miterlimit="10" stroke-width="5.239"/>
            <line id="Line_121" data-name="Line 121" y1="0.092" x2="58.614" transform="translate(114.245 24.215)" fill="none" stroke="#fbe196" stroke-miterlimit="10" stroke-width="5.239"/>
            <line id="Line_122" data-name="Line 122" x2="36.767" transform="translate(108.117 36.457)" fill="none" stroke="#fbe196" stroke-miterlimit="10" stroke-width="5.239"/>
            <line id="Line_123" data-name="Line 123" x2="17.898" transform="translate(154.96 12.15)" fill="none" stroke="#fbe196" stroke-miterlimit="10" stroke-width="5.239"/>
            <line id="Line_124" data-name="Line 124" x2="8.441" transform="translate(98.041 24.307)" fill="none" stroke="#fbe196" stroke-miterlimit="10" stroke-width="5.239"/>
            <line id="Line_125" data-name="Line 125" x2="12.458" transform="translate(99.912 36.457)" fill="none" stroke="#fbe196" stroke-miterlimit="10" stroke-width="5.239"/>
          </g>
        </g>
        <g id="Group_495" data-name="Group 495" transform="translate(18.734 23.895)">
          <path id="Path_300" data-name="Path 300" d="M2226.731,1269.113h-25.225v-5.307l9.057-9.157q4.025-4.124,5.258-5.714a12.573,12.573,0,0,0,1.777-2.948,7.534,7.534,0,0,0,.542-2.816,4.1,4.1,0,0,0-1.2-3.233,4.645,4.645,0,0,0-3.2-1.06,9.18,9.18,0,0,0-4.072.962,20.9,20.9,0,0,0-4.121,2.739l-4.147-4.912a26.962,26.962,0,0,1,4.419-3.208,16.274,16.274,0,0,1,3.824-1.445,19.676,19.676,0,0,1,4.641-.505,13.743,13.743,0,0,1,5.973,1.234,9.552,9.552,0,0,1,4.024,3.456,9.182,9.182,0,0,1,1.431,5.084,12.449,12.449,0,0,1-.875,4.677,17.943,17.943,0,0,1-2.716,4.479,66.2,66.2,0,0,1-6.479,6.542l-4.639,4.368v.345h15.723Z" transform="translate(-2201.406 -1232.51)" fill="#fff"/>
          <path id="Path_301" data-name="Path 301" d="M2262.115,1269.113H2236.89v-5.307l9.057-9.157q4.025-4.124,5.258-5.714a12.548,12.548,0,0,0,1.777-2.948,7.535,7.535,0,0,0,.543-2.816,4.1,4.1,0,0,0-1.2-3.233,4.646,4.646,0,0,0-3.2-1.06,9.18,9.18,0,0,0-4.072.962,20.907,20.907,0,0,0-4.122,2.739l-4.147-4.912a26.962,26.962,0,0,1,4.419-3.208,16.274,16.274,0,0,1,3.824-1.445,19.676,19.676,0,0,1,4.641-.505,13.74,13.74,0,0,1,5.973,1.234,9.554,9.554,0,0,1,4.024,3.456,9.186,9.186,0,0,1,1.431,5.084,12.458,12.458,0,0,1-.874,4.677,17.969,17.969,0,0,1-2.717,4.479,66.176,66.176,0,0,1-6.479,6.542l-4.639,4.368v.345h15.723Z" transform="translate(-2209.201 -1232.51)" fill="#fff"/>
        </g>
        <g id="Group_496" data-name="Group 496" transform="translate(375.847 20.378)">
          <path id="Path_302" data-name="Path 302" d="M2675.742,1228a16.345,16.345,0,0,0-16.327,16.327c0,8.406,13.264,24.081,14.775,25.843l1.552,1.8,1.548-1.8c1.512-1.761,14.779-17.437,14.779-25.843A16.345,16.345,0,0,0,2675.742,1228Zm0,37.648c-4.456-5.481-12.242-16.144-12.242-21.321a12.242,12.242,0,1,1,24.484,0C2687.984,1249.5,2680.193,1260.164,2675.742,1265.647Z" transform="translate(-2659.415 -1227.999)" fill="#fbe196"/>
          <path id="Path_303" data-name="Path 303" d="M2678,1238.384a8.17,8.17,0,1,0,8.169,8.17A8.179,8.179,0,0,0,2678,1238.384Zm0,12.255a4.085,4.085,0,1,1,4.085-4.085A4.091,4.091,0,0,1,2678,1250.639Z" transform="translate(-2661.708 -1230.287)" fill="#fbe196"/>
        </g>
        <g id="Group_497" data-name="Group 497" transform="translate(318.625 19.879)">
          <path id="Path_304" data-name="Path 304" d="M2608.512,1272.331a22.486,22.486,0,1,0-22.486-22.486A22.511,22.511,0,0,0,2608.512,1272.331Zm0-40.887a18.4,18.4,0,1,1-18.4,18.4A18.422,18.422,0,0,1,2608.512,1231.444Z" transform="translate(-2586.026 -1227.359)" fill="#fbe196"/>
          <path id="Path_305" data-name="Path 305" d="M2623.9,1258.879l-7.571-7.571v-13.451h-4.085V1253l8.768,8.77Z" transform="translate(-2591.801 -1229.672)" fill="#fbe196"/>
        </g>
      </g>
      <g id="Group_504" data-name="Group 504" transform="translate(2177.379 1066.289)">
        <path id="Rectangle_87" data-name="Rectangle 87" d="M10.478,0H420.461a10.478,10.478,0,0,1,10.478,10.478V77.344a10.477,10.477,0,0,1-10.477,10.477H10.478A10.478,10.478,0,0,1,0,77.344V10.478A10.478,10.478,0,0,1,10.478,0Z" transform="translate(0 0)" fill="#f3f3f3"/>
        <path id="Path_306" data-name="Path 306" d="M2269.7,1066.289h-84.155a8.17,8.17,0,0,0-8.17,8.17v71.483a8.17,8.17,0,0,0,8.17,8.169H2269.7Z" transform="translate(-2177.379 -1066.289)" fill="#b0bfde"/>
        <g id="Group_500" data-name="Group 500" transform="translate(116.136 25.823)">
          <g id="Group_499" data-name="Group 499">
            <line id="Line_126" data-name="Line 126" x2="92.185" fill="none" stroke="#d1dbea" stroke-miterlimit="10" stroke-width="5.239"/>
            <line id="Line_127" data-name="Line 127" x2="58.487" transform="translate(102.118)" fill="none" stroke="#d1dbea" stroke-miterlimit="10" stroke-width="5.239"/>
            <line id="Line_128" data-name="Line 128" x2="11.983" transform="translate(24.373 36.457)" fill="none" stroke="#d1dbea" stroke-miterlimit="10" stroke-width="5.239"/>
            <line id="Line_129" data-name="Line 129" x2="36.767" transform="translate(53.648 12.15)" fill="none" stroke="#d1dbea" stroke-miterlimit="10" stroke-width="5.239"/>
            <line id="Line_130" data-name="Line 130" x2="20.695" transform="translate(69.719 24.307)" fill="none" stroke="#d1dbea" stroke-miterlimit="10" stroke-width="5.239"/>
            <line id="Line_131" data-name="Line 131" x2="44.936" transform="translate(45.478 36.457)" fill="none" stroke="#d1dbea" stroke-miterlimit="10" stroke-width="5.239"/>
            <line id="Line_132" data-name="Line 132" x2="8.443" transform="translate(35.402 12.15)" fill="none" stroke="#d1dbea" stroke-miterlimit="10" stroke-width="5.239"/>
            <line id="Line_133" data-name="Line 133" x2="26.754" transform="translate(0.271 12.15)" fill="none" stroke="#d1dbea" stroke-miterlimit="10" stroke-width="5.239"/>
            <line id="Line_134" data-name="Line 134" x2="61.279" transform="translate(0.271 24.307)" fill="none" stroke="#d1dbea" stroke-miterlimit="10" stroke-width="5.239"/>
            <line id="Line_135" data-name="Line 135" x2="14.5" transform="translate(0.271 36.457)" fill="none" stroke="#d1dbea" stroke-miterlimit="10" stroke-width="5.239"/>
            <line id="Line_136" data-name="Line 136" x2="44.936" transform="translate(99.948 12.15)" fill="none" stroke="#d1dbea" stroke-miterlimit="10" stroke-width="5.239"/>
            <line id="Line_137" data-name="Line 137" y1="0.092" x2="58.614" transform="translate(114.245 24.215)" fill="none" stroke="#d1dbea" stroke-miterlimit="10" stroke-width="5.239"/>
            <line id="Line_138" data-name="Line 138" x2="36.767" transform="translate(108.117 36.457)" fill="none" stroke="#d1dbea" stroke-miterlimit="10" stroke-width="5.239"/>
            <line id="Line_139" data-name="Line 139" x2="17.898" transform="translate(154.96 12.15)" fill="none" stroke="#d1dbea" stroke-miterlimit="10" stroke-width="5.239"/>
            <line id="Line_140" data-name="Line 140" x2="8.441" transform="translate(98.041 24.307)" fill="none" stroke="#d1dbea" stroke-miterlimit="10" stroke-width="5.239"/>
            <line id="Line_141" data-name="Line 141" x2="12.458" transform="translate(99.912 36.457)" fill="none" stroke="#d1dbea" stroke-miterlimit="10" stroke-width="5.239"/>
          </g>
        </g>
        <g id="Group_501" data-name="Group 501" transform="translate(19.797 23.944)">
          <path id="Path_307" data-name="Path 307" d="M2220.663,1133.685h-7.626V1112.8l.074-3.431.123-3.752q-1.9,1.9-2.642,2.493l-4.146,3.333-3.676-4.592,11.624-9.254h6.27Z" transform="translate(-2202.769 -1097.131)" fill="#fff"/>
          <path id="Path_308" data-name="Path 308" d="M2249.287,1097a13.664,13.664,0,0,1,8.354,2.359,7.51,7.51,0,0,1,3.173,6.355,8.3,8.3,0,0,1-1.531,4.924,13.012,13.012,0,0,1-4.936,3.862,17.535,17.535,0,0,1,5.813,4.529,8.452,8.452,0,0,1,1.765,5.173,8.6,8.6,0,0,1-3.481,7.145,14.526,14.526,0,0,1-9.157,2.7q-5.925,0-9.3-2.518a8.364,8.364,0,0,1-3.382-7.133,9.45,9.45,0,0,1,1.642-5.48,13.617,13.617,0,0,1,5.269-4.22,13.513,13.513,0,0,1-4.444-4.172,9.153,9.153,0,0,1-1.356-4.861,7.463,7.463,0,0,1,3.209-6.269A13.627,13.627,0,0,1,2249.287,1097Zm-5.626,26.952a4,4,0,0,0,1.48,3.308,7.745,7.745,0,0,0,8.294-.037,4.062,4.062,0,0,0,1.407-3.22,4.409,4.409,0,0,0-1.4-3.1,17.92,17.92,0,0,0-4.528-3.074Q2243.658,1120.249,2243.66,1123.95Zm5.577-21.374a4.752,4.752,0,0,0-3.147,1,3.312,3.312,0,0,0-1.2,2.678,4.1,4.1,0,0,0,.951,2.653,10.453,10.453,0,0,0,3.442,2.408,9.64,9.64,0,0,0,3.382-2.322,4.21,4.21,0,0,0,.963-2.739,3.264,3.264,0,0,0-1.234-2.69A4.9,4.9,0,0,0,2249.238,1102.576Z" transform="translate(-2210.222 -1096.998)" fill="#fff"/>
        </g>
        <g id="Group_502" data-name="Group 502" transform="translate(375.847 20.378)">
          <path id="Path_309" data-name="Path 309" d="M2675.742,1092.424a16.345,16.345,0,0,0-16.327,16.327c0,8.407,13.264,24.082,14.775,25.843l1.552,1.8,1.548-1.8c1.512-1.761,14.779-17.436,14.779-25.843A16.345,16.345,0,0,0,2675.742,1092.424Zm0,37.649c-4.456-5.481-12.242-16.144-12.242-21.322a12.242,12.242,0,1,1,24.484,0C2687.984,1113.923,2680.193,1124.589,2675.742,1130.073Z" transform="translate(-2659.415 -1092.424)" fill="#b0bfde"/>
          <path id="Path_310" data-name="Path 310" d="M2678,1102.81a8.169,8.169,0,1,0,8.169,8.169A8.179,8.179,0,0,0,2678,1102.81Zm0,12.254a4.084,4.084,0,1,1,4.085-4.085A4.09,4.09,0,0,1,2678,1115.064Z" transform="translate(-2661.708 -1094.712)" fill="#b0bfde"/>
        </g>
        <g id="Group_503" data-name="Group 503" transform="translate(318.625 19.879)">
          <path id="Path_311" data-name="Path 311" d="M2608.512,1136.757a22.486,22.486,0,1,0-22.486-22.486A22.512,22.512,0,0,0,2608.512,1136.757Zm0-40.887a18.4,18.4,0,1,1-18.4,18.4A18.422,18.422,0,0,1,2608.512,1095.87Z" transform="translate(-2586.026 -1091.785)" fill="#b0bfde"/>
          <path id="Path_312" data-name="Path 312" d="M2623.9,1123.3l-7.571-7.571v-13.451h-4.085v15.142l8.768,8.77Z" transform="translate(-2591.801 -1094.098)" fill="#b0bfde"/>
        </g>
      </g>
    </g>
  </g>
</svg>
