<svg xmlns="http://www.w3.org/2000/svg" width="794.937" height="659.814" viewBox="0 0 794.937 659.814">
  <g id="Group_396" data-name="Group 396" transform="translate(-847.062 -256.789)">
    <line id="Line_5" data-name="Line 5" y2="104.615" transform="translate(1094.985 313.989)" fill="none" stroke="#fcd77c" stroke-miterlimit="10" stroke-width="2.31"/>
    <rect id="Rectangle_38" data-name="Rectangle 38" width="14.942" height="35.871" transform="translate(1087.518 317.652)" fill="#e6e3e3" stroke="#fcd77c" stroke-miterlimit="10" stroke-width="1"/>
    <line id="Line_6" data-name="Line 6" y2="104.615" transform="translate(1124.878 313.989)" fill="none" stroke="#fcd77c" stroke-miterlimit="10" stroke-width="2.31"/>
    <rect id="Rectangle_39" data-name="Rectangle 39" width="14.942" height="35.871" transform="translate(1117.403 346.871)" fill="#e6e3e3" stroke="#fcd77c" stroke-miterlimit="10" stroke-width="1"/>
    <line id="Line_7" data-name="Line 7" y2="104.615" transform="translate(1154.772 313.989)" fill="none" stroke="#fcd77c" stroke-miterlimit="10" stroke-width="2.31"/>
    <rect id="Rectangle_40" data-name="Rectangle 40" width="14.942" height="35.871" transform="translate(1147.296 365.565)" fill="#e6e3e3" stroke="#fcd77c" stroke-miterlimit="10" stroke-width="1"/>
    <line id="Line_8" data-name="Line 8" y2="104.615" transform="translate(1184.657 313.989)" fill="none" stroke="#fcd77c" stroke-miterlimit="10" stroke-width="2.31"/>
    <rect id="Rectangle_41" data-name="Rectangle 41" width="14.942" height="35.871" transform="translate(1177.19 346.871)" fill="#e6e3e3" stroke="#fcd77c" stroke-miterlimit="10" stroke-width="1"/>
    <line id="Line_9" data-name="Line 9" y2="104.615" transform="translate(1214.551 313.989)" fill="none" stroke="#fcd77c" stroke-miterlimit="10" stroke-width="2.31"/>
    <rect id="Rectangle_42" data-name="Rectangle 42" width="14.942" height="35.871" transform="translate(1207.075 336.407)" fill="#e6e3e3" stroke="#fcd77c" stroke-miterlimit="10" stroke-width="1"/>
    <line id="Line_10" data-name="Line 10" y2="104.615" transform="translate(1244.444 313.989)" fill="none" stroke="#fcd77c" stroke-miterlimit="10" stroke-width="2.31"/>
    <rect id="Rectangle_43" data-name="Rectangle 43" width="14.942" height="35.871" transform="translate(1236.969 346.871)" fill="#e6e3e3" stroke="#fcd77c" stroke-miterlimit="10" stroke-width="1"/>
    <line id="Line_11" data-name="Line 11" x1="104.623" transform="translate(1301.953 449.207)" fill="none" stroke="#fcd77c" stroke-miterlimit="10" stroke-width="2.31"/>
    <rect id="Rectangle_44" data-name="Rectangle 44" width="169.38" height="64.765" transform="translate(1087.019 434.554)" fill="none" stroke="#f1ca08" stroke-miterlimit="10" stroke-width="2.31"/>
    <line id="Line_12" data-name="Line 12" x2="169.38" transform="translate(1087.019 451.494)" fill="none" stroke="#f1ca08" stroke-miterlimit="10" stroke-width="2.31"/>
    <circle id="Ellipse_6" data-name="Ellipse 6" cx="2.121" cy="2.121" r="2.121" transform="translate(1094.73 441.276)" fill="none" stroke="#f1ca08" stroke-miterlimit="10" stroke-width="2.31"/>
    <circle id="Ellipse_7" data-name="Ellipse 7" cx="2.121" cy="2.121" r="2.121" transform="translate(1105.449 441.276)" fill="none" stroke="#f1ca08" stroke-miterlimit="10" stroke-width="2.31"/>
    <circle id="Ellipse_8" data-name="Ellipse 8" cx="2.121" cy="2.121" r="2.121" transform="translate(1116.158 441.276)" fill="none" stroke="#f1ca08" stroke-miterlimit="10" stroke-width="2.31"/>
    <line id="Line_13" data-name="Line 13" x2="134.885" transform="translate(1102.083 465.324)" fill="none" stroke="#f1ca08" stroke-miterlimit="10" stroke-width="2.31"/>
    <line id="Line_14" data-name="Line 14" x2="134.885" transform="translate(1102.083 475.788)" fill="none" stroke="#f1ca08" stroke-miterlimit="10" stroke-width="2.31"/>
    <line id="Line_15" data-name="Line 15" x2="134.885" transform="translate(1102.083 486.252)" fill="none" stroke="#f1ca08" stroke-miterlimit="10" stroke-width="2.31"/>
    <rect id="Rectangle_45" data-name="Rectangle 45" width="413.068" height="491.163" transform="translate(1022.13 257.944)" fill="none" stroke="#e6e3e3" stroke-miterlimit="10" stroke-width="2.31"/>
    <line id="Line_16" data-name="Line 16" x2="415.11" transform="translate(1022.13 282.115)" fill="none" stroke="#e6e3e3" stroke-miterlimit="10" stroke-width="2.31"/>
    <circle id="Ellipse_9" data-name="Ellipse 9" cx="3.024" cy="3.024" r="3.024" transform="translate(1033.146 267.54)" fill="none" stroke="#fcd77c" stroke-miterlimit="10" stroke-width="2.31"/>
    <circle id="Ellipse_10" data-name="Ellipse 10" cx="3.024" cy="3.024" r="3.024" transform="translate(1048.431 267.54)" fill="none" stroke="#fcd77c" stroke-miterlimit="10" stroke-width="2.31"/>
    <circle id="Ellipse_11" data-name="Ellipse 11" cx="3.024" cy="3.024" r="3.024" transform="translate(1063.724 267.54)" fill="none" stroke="#fcd77c" stroke-miterlimit="10" stroke-width="2.31"/>
    <circle id="Ellipse_12" data-name="Ellipse 12" cx="3.024" cy="3.024" r="3.024" transform="translate(1289.999 446.184)" fill="none" stroke="#fcd77c" stroke-miterlimit="10" stroke-width="2.31"/>
    <line id="Line_17" data-name="Line 17" x1="104.623" transform="translate(1301.953 471.625)" fill="none" stroke="#fcd77c" stroke-miterlimit="10" stroke-width="2.31"/>
    <circle id="Ellipse_13" data-name="Ellipse 13" cx="3.024" cy="3.024" r="3.024" transform="translate(1289.999 468.602)" fill="none" stroke="#fcd77c" stroke-miterlimit="10" stroke-width="2.31"/>
    <line id="Line_18" data-name="Line 18" x1="104.623" transform="translate(1301.953 494.043)" fill="none" stroke="#fcd77c" stroke-miterlimit="10" stroke-width="2.31"/>
    <circle id="Ellipse_14" data-name="Ellipse 14" cx="3.024" cy="3.024" r="3.024" transform="translate(1289.999 491.02)" fill="none" stroke="#fcd77c" stroke-miterlimit="10" stroke-width="2.31"/>
    <path id="Path_48" data-name="Path 48" d="M347.92,197.224c.1.4,8.834-11.393,13.873-14.951s5.749-5.346,7.011-5.942c4.636-2.217,7.931-1.753,5.311.1-3.1,2.182,6.135-2.682,7.309-2.568,2.708.263-6.266,6.406-4.934,6.4.394,0,9.439-5.162,9.789-5,3.839,1.805-1.332,3.891,1.218,3.506,3.339-.482-1,3.874-5.469,7.888-1.49,1.323-3.506,2.936-4.864,3.952-5.6,4.075-6.59,11.393-6.59,11.393s8.115-4.89,9.185-2.515c.377.876-8.036,7.213-9.728,8.764s-18.019,1.814-18.019,1.814Z" transform="translate(738.38 179.278)" fill="#f7b68b"/>
    <path id="Path_49" data-name="Path 49" d="M365.322,366.058c-.342-.237,13.768-4.286,18.86-7.756s7.011-3.506,8.019-4.47c3.7-3.567,4.382-6.818,1.753-5.013-3.129,2.138,4.662-4.8,4.969-5.951.7-2.629-8.2,3.628-7.721,2.384.14-.368,8.15-7.011,8.115-7.414-.342-4.224-4.11-.114-2.866-2.375,1.621-2.962-3.979-.421-9.272,2.375-1.753.929-3.961,2.217-5.407,3.173-5.775,3.812-13.014,2.173-13.014,2.173s7.423-5.889,5.574-7.721c-.648-.64-9.57,5-11.612,6.038s-8.019,16.24-8.019,16.24Z" transform="translate(737.542 159.465)" fill="#f7b68b"/>
    <path id="Path_50" data-name="Path 50" d="M263.392,266.427l73.731-62.767,13.952,11.954-72.74,99.645S259.4,272.4,263.392,266.427Z" transform="translate(748.896 175.594)" fill="#b0bfde"/>
    <path id="Path_51" data-name="Path 51" d="M690.323,786.817c-55.765.6-228.545,3.216-333.4,10.876-194.436,14.189-353.246-9.263-248.894-36.046,29.122-7.493-54.941-52.4,150.862-62.5,180.685-8.9,364.841,10.1,453.987,18.29s130.275,22.681,149.372,29.219C879.036,752.41,885.232,784.7,690.323,786.817Z" transform="translate(772.123 114.634)" fill="#dfdedb" opacity="0.5"/>
    <path id="Path_52" data-name="Path 52" d="M275.092,423.648l36.87,274-28.895,2.989L204.35,419.66Z" transform="translate(756.126 148.894)" fill="#323232"/>
    <path id="Path_54" data-name="Path 54" d="M272.142,423.648,310,537.236,198.411,654.8,180.48,627.9l67.754-101.626L201.4,419.66Z" transform="translate(759.077 148.894)" fill="#1e1e1e"/>
    <path id="Path_55" data-name="Path 55" d="M355.729,750.83H297.888l-.8-11.1,18.246-5.556S345.449,738.938,355.729,750.83Z" transform="translate(744.663 110.017)" fill="#1e1e1e"/>
    <path id="Path_56" data-name="Path 56" d="M197.3,719.835l-24.381-52.5,9.71-5.39,12.716,14.206S203.751,705.5,197.3,719.835Z" transform="translate(760.012 118.944)" fill="#1e1e1e"/>
    <path id="Path_58" data-name="Path 58" d="M204.35,399.845S223.324,277.3,229.266,273.312s12.953-13.952,12.953-13.952l27.9,8.965,11.928,137.505Z" transform="translate(756.126 168.709)" fill="#d1dbea"/>
    <path id="Path_59" data-name="Path 59" d="M260.518,282.1l26.905,75.72,54.8-19.929,11.954,23.917L275.461,397.7s-2.769,2.428-11.954-15.942c-8.965-17.931-23.917-48.824-23.917-48.824" transform="translate(751.771 165.898)" fill="#b0bfde"/>
    <path id="Path_61" data-name="Path 61" d="M280.461,212.86s3.015,20.508,3.015,27.746-1.805,15.074-9.64,15.074-7.844,1.805-10.254-1.805S252.715,217.68,280.461,212.86Z" transform="translate(749.189 174.457)" fill="#ec9568"/>
    <path id="Path_62" data-name="Path 62" d="M247.49,242.393l15.074-19.9,12.068,43.39s-19.745,9.29-27.063-6.818" transform="translate(750.794 173.266)" fill="#ec9568"/>
    <path id="Path_63" data-name="Path 63" d="M243.75,202.889s-5.425-7.239,10.858-7.239,21.708.6,24.732,4.224,5.425,6.634,3.015,11.463-9.64,4.829-9.64,10.254-1.209,8.44-5.425,6.03-8.44-1.805-6.634,3.619,1.209,15.074-5.425,14.478-12.664.6-15.074-15.074S232.3,208.919,243.75,202.889Z" transform="translate(752.124 176.584)" fill="#281617"/>
    <circle id="Ellipse_15" data-name="Ellipse 15" cx="54.546" cy="54.546" r="54.546" transform="translate(1289.999 313.218)" fill="none" stroke="#f1ca08" stroke-miterlimit="10" stroke-width="2.31"/>
    <path id="Path_64" data-name="Path 64" d="M697.15,182.886h0a54.553,54.553,0,0,0-54.512-54.546l-.009,54.573Z" transform="translate(701.95 184.904)" fill="none" stroke="#f1ca08" stroke-miterlimit="10" stroke-width="2.31"/>
    <path id="Path_65" data-name="Path 65" d="M691.243,182.875h0a54.546,54.546,0,0,0-96.4-35.056l39.551,35.056Z" transform="translate(707.857 184.916)" fill="none" stroke="#f1ca08" stroke-miterlimit="10" stroke-width="2.31"/>
    <line id="Line_19" data-name="Line 19" x2="6.354" transform="translate(1105.072 565.057)" fill="none" stroke="#fcd77c" stroke-miterlimit="10" stroke-width="2.31"/>
    <line id="Line_20" data-name="Line 20" x2="11.086" transform="translate(1138.953 565.057)" fill="none" stroke="#fcd77c" stroke-miterlimit="10" stroke-width="2.31"/>
    <line id="Line_21" data-name="Line 21" x2="18.43" transform="translate(1186.278 565.057)" fill="none" stroke="#fcd77c" stroke-miterlimit="10" stroke-width="2.31"/>
    <line id="Line_22" data-name="Line 22" x2="11.709" transform="translate(1224.638 565.057)" fill="none" stroke="#fcd77c" stroke-miterlimit="10" stroke-width="2.31"/>
    <circle id="Ellipse_16" data-name="Ellipse 16" cx="10.105" cy="10.105" r="10.105" transform="translate(1084.617 554.952)" fill="none" stroke="#fcd77c" stroke-miterlimit="10" stroke-width="2.31"/>
    <circle id="Ellipse_17" data-name="Ellipse 17" cx="10.105" cy="10.105" r="10.105" transform="translate(1204.586 554.952)" fill="none" stroke="#fcd77c" stroke-miterlimit="10" stroke-width="2.31"/>
    <rect id="Rectangle_46" data-name="Rectangle 46" width="35.792" height="16.739" transform="translate(1150.337 556.687)" fill="none" stroke="#fcd77c" stroke-miterlimit="10" stroke-width="2.31"/>
    <rect id="Rectangle_47" data-name="Rectangle 47" width="16.748" height="16.739" transform="translate(1236.031 556.687)" fill="none" stroke="#fcd77c" stroke-miterlimit="10" stroke-width="2.31"/>
    <rect id="Rectangle_48" data-name="Rectangle 48" width="20.315" height="20.315" transform="translate(1110.22 565.017) rotate(-45.01)" fill="none" stroke="#fcd77c" stroke-miterlimit="10" stroke-width="2.31"/>
    <path id="Path_66" data-name="Path 66" d="M417.647,442.346H391.32V432.53" transform="translate(733.015 147.303)" fill="none" stroke="#fcd77c" stroke-miterlimit="10" stroke-width="2.31"/>
    <path id="Path_67" data-name="Path 67" d="M417.647,387.62H391.32v9.816" transform="translate(733.015 152.854)" fill="none" stroke="#fcd77c" stroke-miterlimit="10" stroke-width="2.31"/>
    <path id="Path_68" data-name="Path 68" d="M463.03,441.629h28.246v-14.9" transform="translate(724.151 148.02)" fill="none" stroke="#fcd77c" stroke-miterlimit="10" stroke-width="2.31"/>
    <path id="Path_69" data-name="Path 69" d="M463.03,387.62h28.246v14.89" transform="translate(724.151 152.854)" fill="none" stroke="#fcd77c" stroke-miterlimit="10" stroke-width="2.31"/>
    <rect id="Rectangle_49" data-name="Rectangle 49" width="35.792" height="16.739" transform="translate(1150.337 532.99)" fill="none" stroke="#fcd77c" stroke-miterlimit="10" stroke-width="2.31"/>
    <rect id="Rectangle_50" data-name="Rectangle 50" width="35.792" height="16.739" transform="translate(1150.337 580.385)" fill="none" stroke="#fcd77c" stroke-miterlimit="10" stroke-width="2.31"/>
    <line id="Line_23" data-name="Line 23" x1="268.298" transform="translate(1103.17 652.494)" fill="none" stroke="#e6e3e3" stroke-miterlimit="10" stroke-width="2.31"/>
    <line id="Line_24" data-name="Line 24" x1="268.298" transform="translate(1103.17 628.578)" fill="none" stroke="#e6e3e3" stroke-miterlimit="10" stroke-width="2.31"/>
    <line id="Line_25" data-name="Line 25" x1="268.298" transform="translate(1103.17 676.402)" fill="none" stroke="#e6e3e3" stroke-miterlimit="10" stroke-width="2.31"/>
    <line id="Line_26" data-name="Line 26" x1="268.298" transform="translate(1103.17 700.319)" fill="none" stroke="#e6e3e3" stroke-miterlimit="10" stroke-width="2.31"/>
    <circle id="Ellipse_18" data-name="Ellipse 18" cx="3.024" cy="3.024" r="3.024" transform="translate(1277.063 673.387)" fill="none" stroke="#e6e3e3" stroke-miterlimit="10" stroke-width="2.31"/>
    <circle id="Ellipse_19" data-name="Ellipse 19" cx="3.024" cy="3.024" r="3.024" transform="translate(1294.994 649.69)" fill="none" stroke="#fcd77c" stroke-miterlimit="10" stroke-width="2.31"/>
    <circle id="Ellipse_20" data-name="Ellipse 20" cx="3.024" cy="3.024" r="3.024" transform="translate(1109.682 696.927)" fill="none" stroke="#e6e3e3" stroke-miterlimit="10" stroke-width="2.31"/>
    <circle id="Ellipse_21" data-name="Ellipse 21" cx="3.024" cy="3.024" r="3.024" transform="translate(1154.019 649.357)" fill="none" stroke="#e6e3e3" stroke-miterlimit="10" stroke-width="2.31"/>
    <circle id="Ellipse_22" data-name="Ellipse 22" cx="3.024" cy="3.024" r="3.024" transform="translate(1186.024 673.019)" fill="none" stroke="#e6e3e3" stroke-miterlimit="10" stroke-width="2.31"/>
    <circle id="Ellipse_23" data-name="Ellipse 23" cx="3.024" cy="3.024" r="3.024" transform="translate(1219.406 625.817)" fill="none" stroke="#e6e3e3" stroke-miterlimit="10" stroke-width="2.31"/>
    <circle id="Ellipse_24" data-name="Ellipse 24" cx="3.024" cy="3.024" r="3.024" transform="translate(1249.045 649.979)" fill="none" stroke="#e6e3e3" stroke-miterlimit="10" stroke-width="2.31"/>
    <line id="Line_27" data-name="Line 27" x2="25.038" y2="19.237" transform="translate(1253.401 654.554)" fill="none" stroke="#e6e3e3" stroke-miterlimit="10" stroke-width="2.31"/>
    <line id="Line_28" data-name="Line 28" y1="42.969" x2="39.236" transform="translate(1116.097 654.931)" fill="none" stroke="#e6e3e3" stroke-miterlimit="10" stroke-width="2.31"/>
    <line id="Line_29" data-name="Line 29" x2="28.027" y2="19.982" transform="translate(1158.689 654.186)" fill="none" stroke="#e6e3e3" stroke-miterlimit="10" stroke-width="2.31"/>
    <line id="Line_30" data-name="Line 30" y1="42.408" x2="29.333" transform="translate(1191.756 631.575)" fill="none" stroke="#e6e3e3" stroke-miterlimit="10" stroke-width="2.31"/>
    <line id="Line_31" data-name="Line 31" x2="24.294" y2="19.806" transform="translate(1224.822 630.83)" fill="none" stroke="#e6e3e3" stroke-miterlimit="10" stroke-width="2.31"/>
    <circle id="Ellipse_25" data-name="Ellipse 25" cx="3.024" cy="3.024" r="3.024" transform="translate(1347.157 625.756)" fill="none" stroke="#fcd77c" stroke-miterlimit="10" stroke-width="2.31"/>
    <line id="Line_32" data-name="Line 32" y1="19.061" x2="14.574" transform="translate(1281.989 655.299)" fill="none" stroke="#e6e3e3" stroke-miterlimit="10" stroke-width="2.31"/>
    <line id="Line_33" data-name="Line 33" y1="20.551" x2="47.071" transform="translate(1301.05 631.014)" fill="none" stroke="#fcd77c" stroke-miterlimit="10" stroke-width="2.31"/>
    <rect id="Rectangle_51" data-name="Rectangle 51" width="164.998" height="144.657" transform="translate(1279.324 512.158)" fill="#fff" stroke="#f1ca08" stroke-miterlimit="10" stroke-width="2.56"/>
    <rect id="Rectangle_52" data-name="Rectangle 52" width="158.363" height="23.268" transform="translate(1282.646 536.969)" fill="#fcf5e8"/>
    <rect id="Rectangle_53" data-name="Rectangle 53" width="158.363" height="23.268" transform="translate(1282.646 583.847)" fill="#fcf5e8"/>
    <rect id="Rectangle_54" data-name="Rectangle 54" width="158.363" height="23.268" transform="translate(1282.646 630.725)" fill="#fcf5e8"/>
    <rect id="Rectangle_55" data-name="Rectangle 55" width="164.998" height="23.067" transform="translate(1279.324 512.158)" fill="none" stroke="#f1ca08" stroke-miterlimit="10" stroke-width="2.56"/>
    <line id="Line_34" data-name="Line 34" x2="55.125" transform="translate(1292.348 523.691)" fill="none" stroke="#f1ca08" stroke-miterlimit="10" stroke-width="2.56"/>
    <line id="Line_35" data-name="Line 35" x2="10.482" transform="translate(1401.94 523.691)" fill="none" stroke="#f1ca08" stroke-miterlimit="10" stroke-width="2.56"/>
    <line id="Line_36" data-name="Line 36" x2="10.482" transform="translate(1422.036 523.691)" fill="none" stroke="#f1ca08" stroke-miterlimit="10" stroke-width="2.56"/>
    <line id="Line_37" data-name="Line 37" x2="70.856" transform="translate(1292.348 548.546)" fill="none" stroke="#f1ca08" stroke-miterlimit="10" stroke-width="2.56"/>
    <line id="Line_38" data-name="Line 38" x2="10.482" transform="translate(1401.94 548.546)" fill="none" stroke="#f7ae0d" stroke-miterlimit="10" stroke-width="2.56"/>
    <line id="Line_39" data-name="Line 39" x2="10.482" transform="translate(1422.036 548.546)" fill="none" stroke="#f1ca08" stroke-miterlimit="10" stroke-width="2.56"/>
    <line id="Line_40" data-name="Line 40" x2="57.377" transform="translate(1292.348 572.129)" fill="none" stroke="#f1ca08" stroke-miterlimit="10" stroke-width="2.56"/>
    <line id="Line_41" data-name="Line 41" x2="10.482" transform="translate(1401.94 572.129)" fill="none" stroke="#f1ca08" stroke-miterlimit="10" stroke-width="2.56"/>
    <line id="Line_42" data-name="Line 42" x2="10.482" transform="translate(1422.036 572.129)" fill="none" stroke="#f7ae0d" stroke-miterlimit="10" stroke-width="2.56"/>
    <line id="Line_43" data-name="Line 43" x2="88.831" transform="translate(1292.348 595.704)" fill="none" stroke="#f1ca08" stroke-miterlimit="10" stroke-width="2.56"/>
    <line id="Line_44" data-name="Line 44" x2="10.482" transform="translate(1401.94 595.704)" fill="none" stroke="#f1ca08" stroke-miterlimit="10" stroke-width="2.56"/>
    <line id="Line_45" data-name="Line 45" x2="10.482" transform="translate(1422.036 595.704)" fill="none" stroke="#f1ca08" stroke-miterlimit="10" stroke-width="2.56"/>
    <line id="Line_46" data-name="Line 46" x2="70.856" transform="translate(1292.348 619.288)" fill="none" stroke="#f1ca08" stroke-miterlimit="10" stroke-width="2.56"/>
    <line id="Line_47" data-name="Line 47" x2="10.482" transform="translate(1401.94 619.288)" fill="none" stroke="#f1ca08" stroke-miterlimit="10" stroke-width="2.56"/>
    <line id="Line_48" data-name="Line 48" x2="10.482" transform="translate(1422.036 619.288)" fill="none" stroke="#f1ca08" stroke-miterlimit="10" stroke-width="2.56"/>
    <line id="Line_49" data-name="Line 49" x2="70.856" transform="translate(1292.348 642.872)" fill="none" stroke="#f1ca08" stroke-miterlimit="10" stroke-width="2.56"/>
    <line id="Line_50" data-name="Line 50" x2="10.482" transform="translate(1401.94 642.872)" fill="none" stroke="#f1ca08" stroke-miterlimit="10" stroke-width="2.56"/>
    <line id="Line_51" data-name="Line 51" x2="10.482" transform="translate(1422.036 642.872)" fill="none" stroke="#f1ca08" stroke-miterlimit="10" stroke-width="2.56"/>
    <path id="Path_70" data-name="Path 70" d="M755.513,414.684,703.525,383.66s-8.948,1.946-4.005,6.932,37.045,33.916,37.045,33.916S766.835,433.605,755.513,414.684Z" transform="translate(695.102 153.344)" fill="#ec9568"/>
    <path id="Path_71" data-name="Path 71" d="M700.963,390.812s-9.921-2.533-14.9-3.506-18.343-6.047-20.315-8.036l-1.981-2,12.646,3.506-4.452-3.742s-7.441-2.024-8.431-2.769a5.258,5.258,0,0,1-1.481-1.989c-1.227-2.489.263-2.98.263-2.98l9.421,1.753,6.941,2.761-4.2-4.487s-7.94-1.034-8.676-1.753-.237-2.48-.237-2.48l11.165,1.753,10.394,7.248s.754-1.49-1.472-3.234-3.208-3.506-3.208-4.732,6.441,3.506,7.423,4.75,7.186,3.26,8.9,8.764A58.885,58.885,0,0,1,700.963,390.812Z" transform="translate(699.609 155.639)" fill="#ec9568"/>
    <path id="Path_72" data-name="Path 72" d="M755.513,414.684,703.525,383.66s-8.948,1.946-4.005,6.932,37.045,33.916,37.045,33.916S766.835,433.605,755.513,414.684Z" transform="translate(695.102 153.344)" fill="#ec9568"/>
    <path id="Path_73" data-name="Path 73" d="M833.028,307.519s-7.011,11.043-14.644,11.621-11.463-17.431-11.463-29.631,13.374-23.82,14.645-27.308,14.644,8.133,14.644,18.6S833.028,304.583,833.028,307.519Z" transform="translate(681.643 168.435)" fill="#ec9568"/>
    <path id="Path_74" data-name="Path 74" d="M889.753,747.68s.666,6.45.666,8.44-4.3,7.616-4.636,9.263l-.333,1.656h32.426s.666-3.313-4.636-7.616-6.95-7.283-7.616-12.743S889.753,747.68,889.753,747.68Z" transform="translate(671.935 108.741)" fill="#1e1e1e"/>
    <path id="Path_75" data-name="Path 75" d="M818.914,748.6l3.313,17.87H771.58a7.318,7.318,0,0,1,5.627-7.283c5.959-1.656,22.172-6.617,26.476-11.919S818.914,748.6,818.914,748.6Z" transform="translate(686.011 108.651)" fill="#1e1e1e"/>
    <path id="Path_76" data-name="Path 76" d="M883.837,710.877,834.189,532.646,826.74,455.2v-4.47l28.3.5s17.87,19.359,17.379,44.7-1.49,82.381,2.48,93.335,14.4,29.289,15.389,40.708,5.959,79.927,5.959,79.927Z" transform="translate(679.192 145.053)" fill="#323232"/>
    <path id="Path_77" data-name="Path 77" d="M791.653,451.78s-9.929,16.879-7.449,46.668,21.84,211.49,21.84,211.49l14.9.5s4.96-69.506,2.98-86.386-7.449-34.258-6.95-37.238,30.674-87.727,25.319-102.765c-2.752-7.712-11.919-32.269-13.4-32.768S791.653,451.78,791.653,451.78Z" transform="translate(684.5 145.002)" fill="#1e1e1e"/>
    <path id="Path_79" data-name="Path 79" d="M864.25,347.035s12.41,9.929,2.48,39.218-13.9,45.178-15.889,45.677-12.41,2.48-15.889-1.49-6.45-7.449-5.959-9.929S840.675,354.9,841.9,349.024C844.391,337.106,860.779,345.545,864.25,347.035Z" transform="translate(678.92 158.401)" fill="#f1ca08"/>
    <path id="Path_80" data-name="Path 80" d="M797.028,349.349l14.4-7.449,26.809-.5s13.9,1.989,19.859,14.9c2.051,4.443-2.98,69.007-3.506,77.946s7.756,14.162,6.135,18.851c-9.053,26.4-77.674,7.546-77.674,7.546S787.09,357.289,797.028,349.349Z" transform="translate(684.593 158.568)" fill="#f1ca08"/>
    <path id="Path_81" data-name="Path 81" d="M804.235,349.087s7.677,13.917-12.681,37.194-30.1,36.449-32.12,36.151-12.418-2.445-14.119-7.441-3.12-9.342-1.753-11.454,39.771-44.266,44.152-48.368S801.588,346.388,804.235,349.087Z" transform="translate(689.542 157.716)" fill="#f1ca08"/>
    <path id="Path_82" data-name="Path 82" d="M846.356,310.164,844.349,337s1.016,3.733-7.449,4.47c-11.393.99-16.38-3.506-16.38-3.506a61.346,61.346,0,0,0,5.46-29.289C824.981,291.795,846.356,310.164,846.356,310.164Z" transform="translate(679.961 163.495)" fill="#ec9568"/>
    <path id="Path_83" data-name="Path 83" d="M824.977,254.095s14.5-3.506,28.8,7.449c8.44,6.45,13.4,17.87,8.939,27.308s-14.4,21.84-19.359,21.84-15.889-7.449-17.379-10.429-1.49-4.96-2.48-11.393-4.47-4.47-4.47-2.98-1.989,5.959-2.98,2.98S794.7,264.524,824.977,254.095Z" transform="translate(681.455 169.425)" fill="#1e1e1e"/>
    <ellipse id="Ellipse_26" data-name="Ellipse 26" cx="21.594" cy="20.849" rx="21.594" ry="20.849" transform="translate(1516.361 404.161)" fill="#1e1e1e"/>
  </g>
</svg>
