<svg xmlns="http://www.w3.org/2000/svg" width="1014.127" height="724.268" viewBox="0 0 1014.127 724.268">
  <g id="Group_1075" data-name="Group 1075" transform="translate(-885.42 -1083.956)">
    <path id="Path_408" data-name="Path 408" d="M680.976,47.445C810.671,67.31,903.442,42.8,954.96-43c57.647-96.006,78.218-178.636,189.68-215.662,140-46.5,315.956,52.532,370.987,250.8,27.169,97.889,33.2,240.561-65.536,353.984-72.507,83.29-207.1,107.132-312.475,63.07-77.68-32.479-176.8-66.09-277.5-12.754s-220.246,52.231-299.628-40.6C472.646,253.123,528.42,24.072,680.976,47.445Z" transform="translate(366.678 1353.956)" fill="#dfdedb" opacity="0.5"/>
    <g id="Group_526" data-name="Group 526" transform="translate(79.613 104.854)">
      <g id="Group_543" data-name="Group 543" transform="translate(1105.353 1071.612)">
        <rect id="Rectangle_121" data-name="Rectangle 121" width="298.877" height="347.903" fill="#f7f8fc"/>
        <g id="Group_526-2" data-name="Group 526" transform="translate(44.575 37.433)">
          <rect id="Rectangle_122" data-name="Rectangle 122" width="139.256" height="5.726" fill="#f1ca08"/>
        </g>
        <g id="Group_527" data-name="Group 527" transform="translate(44.575 25.223)">
          <rect id="Rectangle_123" data-name="Rectangle 123" width="45.112" height="5.731" fill="#f9e581"/>
        </g>
        <g id="Group_542" data-name="Group 542" transform="translate(25.758 55.132)">
          <g id="Group_541" data-name="Group 541">
            <g id="Group_539" data-name="Group 539">
              <g id="Group_528" data-name="Group 528" transform="translate(24.256)">
                <rect id="Rectangle_124" data-name="Rectangle 124" width="217.448" height="246.512" fill="none" stroke="#bac2c6" stroke-miterlimit="10" stroke-width="0.333"/>
                <line id="Line_145" data-name="Line 145" x2="217.448" transform="translate(0 211.296)" fill="none" stroke="#bac2c6" stroke-miterlimit="10" stroke-width="0.333"/>
                <line id="Line_146" data-name="Line 146" x2="217.448" transform="translate(0 176.081)" fill="none" stroke="#bac2c6" stroke-miterlimit="10" stroke-width="0.333"/>
                <line id="Line_147" data-name="Line 147" x2="217.448" transform="translate(0 140.863)" fill="none" stroke="#bac2c6" stroke-miterlimit="10" stroke-width="0.333"/>
                <line id="Line_148" data-name="Line 148" x2="217.448" transform="translate(0 105.648)" fill="none" stroke="#bac2c6" stroke-miterlimit="10" stroke-width="0.333"/>
                <line id="Line_149" data-name="Line 149" x2="217.448" transform="translate(0 70.431)" fill="none" stroke="#bac2c6" stroke-miterlimit="10" stroke-width="0.333"/>
                <line id="Line_150" data-name="Line 150" x2="217.448" transform="translate(0 35.218)" fill="none" stroke="#bac2c6" stroke-miterlimit="10" stroke-width="0.333"/>
                <line id="Line_151" data-name="Line 151" y2="246.512" transform="translate(144.967)" fill="none" stroke="#bac2c6" stroke-miterlimit="10" stroke-width="0.333"/>
                <line id="Line_152" data-name="Line 152" y2="246.512" transform="translate(72.482)" fill="none" stroke="#bac2c6" stroke-miterlimit="10" stroke-width="0.333"/>
              </g>
              <line id="Line_153" data-name="Line 153" x1="11.247" y2="11.246" transform="translate(13.01)" fill="none" stroke="#bac2c6" stroke-miterlimit="10" stroke-width="0.333"/>
              <line id="Line_154" data-name="Line 154" x1="11.247" y2="11.241" transform="translate(13.01 35.218)" fill="none" stroke="#bac2c6" stroke-miterlimit="10" stroke-width="0.333"/>
              <line id="Line_155" data-name="Line 155" x1="11.247" y2="11.246" transform="translate(13.01 70.431)" fill="none" stroke="#bac2c6" stroke-miterlimit="10" stroke-width="0.333"/>
              <line id="Line_156" data-name="Line 156" x1="11.247" y2="11.246" transform="translate(13.01 105.648)" fill="none" stroke="#bac2c6" stroke-miterlimit="10" stroke-width="0.333"/>
              <line id="Line_157" data-name="Line 157" x1="11.247" y2="11.249" transform="translate(13.01 140.863)" fill="none" stroke="#bac2c6" stroke-miterlimit="10" stroke-width="0.333"/>
              <line id="Line_158" data-name="Line 158" x1="11.247" y2="11.246" transform="translate(13.01 176.081)" fill="none" stroke="#bac2c6" stroke-miterlimit="10" stroke-width="0.333"/>
              <line id="Line_159" data-name="Line 159" x1="11.247" y2="11.246" transform="translate(13.01 211.296)" fill="none" stroke="#bac2c6" stroke-miterlimit="10" stroke-width="0.333"/>
              <g id="Group_529" data-name="Group 529" transform="translate(0.561 222.022)">
                <path id="Path_330" data-name="Path 330" d="M1141.52,1431.3h-.893v-5.92l-1.791.657v-.806l2.545-.956h.139Z" transform="translate(-1138.836 -1424.217)" fill="#bac2c6"/>
                <path id="Path_331" data-name="Path 331" d="M1149.938,1428.306a4.064,4.064,0,0,1-.533,2.32,2.214,2.214,0,0,1-3.323.017,3.863,3.863,0,0,1-.557-2.217v-1.186a3.974,3.974,0,0,1,.533-2.291,2.254,2.254,0,0,1,3.333-.026,3.833,3.833,0,0,1,.547,2.23Zm-.888-1.215a3.256,3.256,0,0,0-.318-1.645,1.091,1.091,0,0,0-1-.516,1.076,1.076,0,0,0-.994.514,3.172,3.172,0,0,0-.321,1.579v1.421a3.309,3.309,0,0,0,.328,1.674,1.089,1.089,0,0,0,1,.541,1.077,1.077,0,0,0,.977-.509,3.2,3.2,0,0,0,.334-1.6Z" transform="translate(-1140.267 -1424.2)" fill="#bac2c6"/>
              </g>
              <g id="Group_530" data-name="Group 530" transform="translate(0.192 187.057)">
                <path id="Path_332" data-name="Path 332" d="M1143.082,1386.807H1138.5v-.639l2.42-2.688a5.741,5.741,0,0,0,.742-.992,1.655,1.655,0,0,0,.2-.791,1.253,1.253,0,0,0-.332-.9,1.16,1.16,0,0,0-.883-.351,1.377,1.377,0,0,0-1.031.376,1.443,1.443,0,0,0-.367,1.05h-.888a2.066,2.066,0,0,1,.622-1.561,2.311,2.311,0,0,1,1.664-.595,2.212,2.212,0,0,1,1.541.512,1.741,1.741,0,0,1,.567,1.361,4,4,0,0,1-1.316,2.459l-1.873,2.031h3.51Z" transform="translate(-1138.366 -1379.719)" fill="#bac2c6"/>
                <path id="Path_333" data-name="Path 333" d="M1149.938,1383.825a4.065,4.065,0,0,1-.533,2.32,2.213,2.213,0,0,1-3.323.017,3.858,3.858,0,0,1-.557-2.216v-1.186a3.975,3.975,0,0,1,.533-2.291,2.254,2.254,0,0,1,3.333-.026,3.833,3.833,0,0,1,.547,2.23Zm-.888-1.214a3.256,3.256,0,0,0-.318-1.645,1.091,1.091,0,0,0-1-.516,1.076,1.076,0,0,0-.994.513,3.177,3.177,0,0,0-.321,1.58v1.421a3.309,3.309,0,0,0,.328,1.674,1.089,1.089,0,0,0,1,.541,1.076,1.076,0,0,0,.977-.509,3.2,3.2,0,0,0,.334-1.6Z" transform="translate(-1139.898 -1379.719)" fill="#bac2c6"/>
              </g>
              <g id="Group_531" data-name="Group 531" transform="translate(0.197 152.09)">
                <path id="Path_334" data-name="Path 334" d="M1139.794,1338.394h.667a1.471,1.471,0,0,0,.99-.332,1.108,1.108,0,0,0,.36-.869,1.084,1.084,0,0,0-1.224-1.229,1.271,1.271,0,0,0-.92.329,1.148,1.148,0,0,0-.344.872h-.888a1.782,1.782,0,0,1,.608-1.38,2.5,2.5,0,0,1,3.095-.027,1.89,1.89,0,0,1,.561,1.454,1.534,1.534,0,0,1-.295.884,1.78,1.78,0,0,1-.8.638,1.721,1.721,0,0,1,.891.605,1.679,1.679,0,0,1,.315,1.032,1.908,1.908,0,0,1-.615,1.494,2.3,2.3,0,0,1-1.6.553,2.363,2.363,0,0,1-1.6-.534,1.769,1.769,0,0,1-.617-1.407h.893a1.145,1.145,0,0,0,.36.884,1.372,1.372,0,0,0,.966.332,1.347,1.347,0,0,0,.984-.337,1.3,1.3,0,0,0,.341-.964,1.176,1.176,0,0,0-.375-.937,1.627,1.627,0,0,0-1.081-.336h-.667Z" transform="translate(-1138.372 -1335.234)" fill="#bac2c6"/>
                <path id="Path_335" data-name="Path 335" d="M1149.938,1339.34a4.063,4.063,0,0,1-.533,2.32,2.214,2.214,0,0,1-3.323.017,3.863,3.863,0,0,1-.557-2.217v-1.186a3.974,3.974,0,0,1,.533-2.291,2.254,2.254,0,0,1,3.333-.026,3.832,3.832,0,0,1,.547,2.23Zm-.888-1.215a3.253,3.253,0,0,0-.318-1.645,1.091,1.091,0,0,0-1-.516,1.077,1.077,0,0,0-.994.513,3.177,3.177,0,0,0-.321,1.58v1.421a3.308,3.308,0,0,0,.328,1.673,1.09,1.09,0,0,0,1,.541,1.077,1.077,0,0,0,.977-.509,3.207,3.207,0,0,0,.334-1.6Z" transform="translate(-1139.902 -1335.234)" fill="#bac2c6"/>
              </g>
              <g id="Group_532" data-name="Group 532" transform="translate(0 117.126)">
                <path id="Path_336" data-name="Path 336" d="M1142.2,1295.52h.97v.725h-.97v1.623h-.893v-1.623h-3.184v-.524l3.131-4.845h.946Zm-3.069,0h2.176v-3.429l-.106.192Z" transform="translate(-1138.122 -1290.78)" fill="#bac2c6"/>
                <path id="Path_337" data-name="Path 337" d="M1149.938,1294.86a4.063,4.063,0,0,1-.533,2.32,2.213,2.213,0,0,1-3.323.016,3.857,3.857,0,0,1-.557-2.216v-1.186a3.974,3.974,0,0,1,.533-2.291,2.254,2.254,0,0,1,3.333-.026,3.832,3.832,0,0,1,.547,2.23Zm-.888-1.214a3.255,3.255,0,0,0-.318-1.645,1.091,1.091,0,0,0-1-.516,1.076,1.076,0,0,0-.994.513,3.177,3.177,0,0,0-.321,1.58V1295a3.314,3.314,0,0,0,.328,1.674,1.09,1.09,0,0,0,1,.54,1.077,1.077,0,0,0,.977-.509,3.207,3.207,0,0,0,.334-1.6Z" transform="translate(-1139.706 -1290.754)" fill="#bac2c6"/>
              </g>
              <g id="Group_533" data-name="Group 533" transform="translate(0.485 82.159)">
                <path id="Path_338" data-name="Path 338" d="M1138.988,1249.878l.355-3.486h3.582v.821H1140.1l-.211,1.906a2.258,2.258,0,0,1,1.167-.3,1.931,1.931,0,0,1,1.518.631,2.476,2.476,0,0,1,.561,1.707,2.389,2.389,0,0,1-.583,1.7,2.126,2.126,0,0,1-1.63.622,2.208,2.208,0,0,1-1.512-.514,2.052,2.052,0,0,1-.667-1.422h.84a1.412,1.412,0,0,0,.427.905,1.326,1.326,0,0,0,.913.305,1.2,1.2,0,0,0,.972-.423,1.767,1.767,0,0,0,.354-1.167,1.622,1.622,0,0,0-.382-1.125,1.3,1.3,0,0,0-1.016-.425,1.47,1.47,0,0,0-.913.254l-.235.193Z" transform="translate(-1138.739 -1246.296)" fill="#bac2c6"/>
                <path id="Path_339" data-name="Path 339" d="M1149.938,1250.376a4.067,4.067,0,0,1-.533,2.32,2.214,2.214,0,0,1-3.323.016,3.862,3.862,0,0,1-.557-2.217v-1.185a3.977,3.977,0,0,1,.533-2.291,2.254,2.254,0,0,1,3.333-.025,3.829,3.829,0,0,1,.547,2.229Zm-.888-1.215a3.259,3.259,0,0,0-.318-1.646,1.091,1.091,0,0,0-1-.516,1.076,1.076,0,0,0-.994.514,3.172,3.172,0,0,0-.321,1.579v1.421a3.311,3.311,0,0,0,.328,1.674,1.09,1.09,0,0,0,1,.54,1.077,1.077,0,0,0,.977-.509,3.2,3.2,0,0,0,.334-1.6Z" transform="translate(-1140.191 -1246.27)" fill="#bac2c6"/>
              </g>
              <g id="Group_534" data-name="Group 534" transform="translate(0.379 47.193)">
                <path id="Path_340" data-name="Path 340" d="M1142.038,1201.9v.754h-.163a2.336,2.336,0,0,0-1.652.615,2.556,2.556,0,0,0-.711,1.674,1.9,1.9,0,0,1,1.508-.634,1.812,1.812,0,0,1,1.457.644,2.818,2.818,0,0,1-.043,3.39,2.025,2.025,0,0,1-1.577.649,1.992,1.992,0,0,1-1.628-.771,3.052,3.052,0,0,1-.625-1.986v-.341a4.605,4.605,0,0,1,.824-2.951,3.024,3.024,0,0,1,2.451-1.044Zm-1.167,3.151a1.49,1.49,0,0,0-1.373.961v.325a2.291,2.291,0,0,0,.389,1.393,1.165,1.165,0,0,0,.97.528,1.131,1.131,0,0,0,.943-.442,2.126,2.126,0,0,0,0-2.322A1.119,1.119,0,0,0,1140.871,1205.054Z" transform="translate(-1138.604 -1201.812)" fill="#bac2c6"/>
                <path id="Path_341" data-name="Path 341" d="M1149.938,1205.893a4.067,4.067,0,0,1-.533,2.32,2.215,2.215,0,0,1-3.323.017,3.86,3.86,0,0,1-.557-2.216v-1.186a3.977,3.977,0,0,1,.533-2.291,2.255,2.255,0,0,1,3.333-.025,3.832,3.832,0,0,1,.547,2.23Zm-.888-1.215a3.258,3.258,0,0,0-.318-1.646,1.092,1.092,0,0,0-1-.515,1.075,1.075,0,0,0-.994.513,3.176,3.176,0,0,0-.321,1.579v1.421a3.31,3.31,0,0,0,.328,1.674,1.09,1.09,0,0,0,1,.541,1.076,1.076,0,0,0,.977-.509,3.2,3.2,0,0,0,.334-1.6Z" transform="translate(-1140.085 -1201.787)" fill="#bac2c6"/>
              </g>
              <g id="Group_535" data-name="Group 535" transform="translate(0.115 12.226)">
                <path id="Path_342" data-name="Path 342" d="M1142.993,1157.925l-2.9,6.493h-.931l2.886-6.262h-3.784v-.729h4.725Z" transform="translate(-1138.268 -1157.33)" fill="#bac2c6"/>
                <path id="Path_343" data-name="Path 343" d="M1149.938,1161.41a4.065,4.065,0,0,1-.533,2.32,2.214,2.214,0,0,1-3.323.017,3.862,3.862,0,0,1-.557-2.217v-1.185a3.977,3.977,0,0,1,.533-2.291,2.254,2.254,0,0,1,3.333-.026,3.834,3.834,0,0,1,.547,2.23Zm-.888-1.214a3.257,3.257,0,0,0-.318-1.646,1.091,1.091,0,0,0-1-.516,1.076,1.076,0,0,0-.994.514,3.173,3.173,0,0,0-.321,1.579v1.421a3.312,3.312,0,0,0,.328,1.674,1.09,1.09,0,0,0,1,.54,1.077,1.077,0,0,0,.977-.509,3.2,3.2,0,0,0,.334-1.6Z" transform="translate(-1139.821 -1157.304)" fill="#bac2c6"/>
              </g>
              <g id="Group_536" data-name="Group 536" transform="translate(45.241 252.437)">
                <path id="Path_344" data-name="Path 344" d="M1200.392,1469.981h-4.581v-.639l2.42-2.688a5.778,5.778,0,0,0,.742-.992,1.655,1.655,0,0,0,.2-.79,1.256,1.256,0,0,0-.332-.9,1.16,1.16,0,0,0-.884-.35,1.376,1.376,0,0,0-1.031.376,1.444,1.444,0,0,0-.367,1.049h-.888a2.065,2.065,0,0,1,.622-1.561,2.309,2.309,0,0,1,1.664-.595,2.216,2.216,0,0,1,1.542.512,1.746,1.746,0,0,1,.567,1.362,4,4,0,0,1-1.316,2.458l-1.873,2.031h3.51Z" transform="translate(-1195.676 -1462.893)" fill="#bac2c6"/>
                <path id="Path_345" data-name="Path 345" d="M1207.248,1467a4.063,4.063,0,0,1-.533,2.32,2.214,2.214,0,0,1-3.323.017,3.858,3.858,0,0,1-.557-2.217v-1.185a3.977,3.977,0,0,1,.533-2.291,2.255,2.255,0,0,1,3.333-.026,3.834,3.834,0,0,1,.547,2.23Zm-.888-1.214a3.258,3.258,0,0,0-.317-1.646,1.092,1.092,0,0,0-1-.516,1.075,1.075,0,0,0-.994.514,3.171,3.171,0,0,0-.322,1.579v1.421a3.31,3.31,0,0,0,.329,1.674,1.09,1.09,0,0,0,1,.54,1.077,1.077,0,0,0,.977-.509,3.2,3.2,0,0,0,.333-1.6Z" transform="translate(-1197.208 -1462.893)" fill="#bac2c6"/>
                <path id="Path_346" data-name="Path 346" d="M1212.88,1470h-.893v-5.921l-1.791.657v-.806l2.545-.956h.139Z" transform="translate(-1198.782 -1462.91)" fill="#bac2c6"/>
                <path id="Path_347" data-name="Path 347" d="M1220.3,1466.907a2.17,2.17,0,0,1-.665.534,1.811,1.811,0,0,1-.847.2,1.862,1.862,0,0,1-1.054-.3,1.935,1.935,0,0,1-.694-.837,2.872,2.872,0,0,1-.245-1.194,2.915,2.915,0,0,1,.266-1.263,1.965,1.965,0,0,1,.757-.858,2.155,2.155,0,0,1,1.143-.3,1.952,1.952,0,0,1,1.635.776,3.385,3.385,0,0,1,.6,2.116v.259a4.521,4.521,0,0,1-.807,2.98,3.1,3.1,0,0,1-2.434.962h-.173v-.754h.187a2.115,2.115,0,0,0,2.334-2.324Zm-1.369,0a1.368,1.368,0,0,0,.824-.274,1.608,1.608,0,0,0,.549-.677v-.354a2.441,2.441,0,0,0-.38-1.421,1.129,1.129,0,0,0-.96-.547,1.141,1.141,0,0,0-.942.449,1.851,1.851,0,0,0-.355,1.184,1.917,1.917,0,0,0,.344,1.178A1.085,1.085,0,0,0,1218.931,1466.907Z" transform="translate(-1200.194 -1462.893)" fill="#bac2c6"/>
              </g>
              <g id="Group_537" data-name="Group 537" transform="translate(119.185 252.437)">
                <path id="Path_348" data-name="Path 348" d="M1294.461,1469.981h-4.581v-.639l2.42-2.688a5.778,5.778,0,0,0,.742-.992,1.652,1.652,0,0,0,.2-.79,1.252,1.252,0,0,0-.332-.9,1.158,1.158,0,0,0-.883-.35A1.377,1.377,0,0,0,1291,1464a1.444,1.444,0,0,0-.367,1.049h-.888a2.065,2.065,0,0,1,.622-1.561,2.309,2.309,0,0,1,1.664-.595,2.215,2.215,0,0,1,1.541.512,1.746,1.746,0,0,1,.567,1.362,4,4,0,0,1-1.316,2.458l-1.873,2.031h3.51Z" transform="translate(-1289.746 -1462.893)" fill="#bac2c6"/>
                <path id="Path_349" data-name="Path 349" d="M1301.318,1467a4.063,4.063,0,0,1-.533,2.32,2.214,2.214,0,0,1-3.323.017,3.857,3.857,0,0,1-.557-2.217v-1.185a3.977,3.977,0,0,1,.533-2.291,2.255,2.255,0,0,1,3.333-.026,3.834,3.834,0,0,1,.547,2.23Zm-.888-1.214a3.258,3.258,0,0,0-.317-1.646,1.092,1.092,0,0,0-1-.516,1.078,1.078,0,0,0-.994.514,3.182,3.182,0,0,0-.321,1.579v1.421a3.312,3.312,0,0,0,.328,1.674,1.089,1.089,0,0,0,1,.54,1.077,1.077,0,0,0,.978-.509,3.2,3.2,0,0,0,.333-1.6Z" transform="translate(-1291.278 -1462.893)" fill="#bac2c6"/>
                <path id="Path_350" data-name="Path 350" d="M1308.511,1469.981h-4.58v-.639l2.42-2.688a5.772,5.772,0,0,0,.742-.992,1.663,1.663,0,0,0,.2-.79,1.253,1.253,0,0,0-.332-.9,1.158,1.158,0,0,0-.883-.35,1.376,1.376,0,0,0-1.031.376,1.444,1.444,0,0,0-.367,1.049h-.888a2.065,2.065,0,0,1,.622-1.561,2.308,2.308,0,0,1,1.664-.595,2.213,2.213,0,0,1,1.541.512,1.744,1.744,0,0,1,.568,1.362,4,4,0,0,1-1.316,2.458l-1.873,2.031h3.51Z" transform="translate(-1292.752 -1462.893)" fill="#bac2c6"/>
                <path id="Path_351" data-name="Path 351" d="M1315.368,1467a4.063,4.063,0,0,1-.533,2.32,2.214,2.214,0,0,1-3.323.017,3.857,3.857,0,0,1-.557-2.217v-1.185a3.977,3.977,0,0,1,.533-2.291,2.255,2.255,0,0,1,3.333-.026,3.834,3.834,0,0,1,.547,2.23Zm-.888-1.214a3.266,3.266,0,0,0-.317-1.646,1.092,1.092,0,0,0-1-.516,1.078,1.078,0,0,0-.994.514,3.18,3.18,0,0,0-.321,1.579v1.421a3.312,3.312,0,0,0,.329,1.674,1.088,1.088,0,0,0,1,.54,1.077,1.077,0,0,0,.978-.509,3.2,3.2,0,0,0,.333-1.6Z" transform="translate(-1294.283 -1462.893)" fill="#bac2c6"/>
              </g>
              <g id="Group_538" data-name="Group 538" transform="translate(193.128 252.437)">
                <path id="Path_352" data-name="Path 352" d="M1388.529,1469.981h-4.581v-.639l2.42-2.688a5.692,5.692,0,0,0,.742-.992,1.652,1.652,0,0,0,.2-.79,1.256,1.256,0,0,0-.332-.9,1.159,1.159,0,0,0-.884-.35,1.373,1.373,0,0,0-1.03.376,1.441,1.441,0,0,0-.368,1.049h-.888a2.064,2.064,0,0,1,.621-1.561,2.309,2.309,0,0,1,1.664-.595,2.215,2.215,0,0,1,1.542.512,1.744,1.744,0,0,1,.567,1.362,4,4,0,0,1-1.316,2.458l-1.872,2.031h3.51Z" transform="translate(-1383.814 -1462.893)" fill="#bac2c6"/>
                <path id="Path_353" data-name="Path 353" d="M1395.385,1467a4.063,4.063,0,0,1-.533,2.32,2.214,2.214,0,0,1-3.323.017,3.863,3.863,0,0,1-.557-2.217v-1.185a3.981,3.981,0,0,1,.533-2.291,2.255,2.255,0,0,1,3.333-.026,3.827,3.827,0,0,1,.547,2.23Zm-.888-1.214a3.256,3.256,0,0,0-.317-1.646,1.091,1.091,0,0,0-1-.516,1.077,1.077,0,0,0-.994.514,3.17,3.17,0,0,0-.321,1.579v1.421a3.311,3.311,0,0,0,.328,1.674,1.09,1.09,0,0,0,1,.54,1.076,1.076,0,0,0,.977-.509,3.187,3.187,0,0,0,.333-1.6Z" transform="translate(-1385.345 -1462.893)" fill="#bac2c6"/>
                <path id="Path_354" data-name="Path 354" d="M1402.579,1469.981H1398v-.639l2.42-2.688a5.737,5.737,0,0,0,.742-.992,1.655,1.655,0,0,0,.2-.79,1.257,1.257,0,0,0-.332-.9,1.16,1.16,0,0,0-.884-.35,1.376,1.376,0,0,0-1.031.376,1.444,1.444,0,0,0-.367,1.049h-.888a2.065,2.065,0,0,1,.622-1.561,2.31,2.31,0,0,1,1.664-.595,2.217,2.217,0,0,1,1.542.512,1.744,1.744,0,0,1,.567,1.362,4,4,0,0,1-1.316,2.458l-1.873,2.031h3.51Z" transform="translate(-1386.82 -1462.893)" fill="#bac2c6"/>
                <path id="Path_355" data-name="Path 355" d="M1408.043,1470h-.893v-5.921l-1.791.657v-.806l2.544-.956h.139Z" transform="translate(-1388.423 -1462.91)" fill="#bac2c6"/>
              </g>
              <rect id="Rectangle_125" data-name="Rectangle 125" width="217.448" height="35.213" transform="translate(24.256 35.218)" fill="#fff" opacity="0.34"/>
              <rect id="Rectangle_126" data-name="Rectangle 126" width="217.448" height="35.215" transform="translate(24.256 105.648)" fill="#fff" opacity="0.34"/>
              <rect id="Rectangle_127" data-name="Rectangle 127" width="217.448" height="35.215" transform="translate(24.256 176.081)" fill="#fff" opacity="0.34"/>
            </g>
            <g id="Group_540" data-name="Group 540" transform="translate(24.256 35.218)">
              <rect id="Rectangle_128" data-name="Rectangle 128" width="97.718" height="5.62" fill="#c5e1f9"/>
              <rect id="Rectangle_129" data-name="Rectangle 129" width="167.856" height="5.625" transform="translate(0 14.793)" fill="#7eb3ff"/>
              <rect id="Rectangle_130" data-name="Rectangle 130" width="59.826" height="5.622" transform="translate(0 29.591)" fill="#eaf4fe"/>
              <rect id="Rectangle_131" data-name="Rectangle 131" width="176.389" height="5.622" transform="translate(0 70.43)" fill="#f9e581"/>
              <rect id="Rectangle_132" data-name="Rectangle 132" width="72.482" height="5.624" transform="translate(0 85.228)" fill="#f1ca08"/>
              <rect id="Rectangle_133" data-name="Rectangle 133" width="144.967" height="5.621" transform="translate(0 100.024)" fill="#eaf4fe"/>
              <rect id="Rectangle_134" data-name="Rectangle 134" width="72.482" height="5.626" transform="translate(0 141.316)" fill="#c5e1f9"/>
              <rect id="Rectangle_135" data-name="Rectangle 135" width="144.967" height="5.624" transform="translate(0 156.114)" fill="#7eb3ff"/>
              <rect id="Rectangle_136" data-name="Rectangle 136" width="119.651" height="5.621" transform="translate(0 170.912)" fill="#eaf4fe"/>
            </g>
          </g>
        </g>
      </g>
      <g id="Group_552" data-name="Group 552" transform="translate(1118.438 1198.001)">
        <g id="Group_545" data-name="Group 545" transform="translate(0 0)">
          <g id="Group_544" data-name="Group 544">
            <path id="Path_356" data-name="Path 356" d="M1277.629,1337.31s-15.746,6.552,3.527,53.911,29.176,41.167,29.176,41.167l12.768-1.746,22.332-31.066-14.208-11.505-2.6,1.2s-3.544-1.337-4.2-4.622-7.94-16.851-14.825-44.827C1306.418,1326.914,1280.65,1336.029,1277.629,1337.31Z" transform="translate(-1154 -1253.922)" fill="#d1dbea"/>
            <path id="Path_357" data-name="Path 357" d="M1353.64,1418.579s26.855,14.674,43.18,16.489c10.936,1.214-11.65,13.408-34.121,15.834s-31.18,1.431-36.033-6.473S1353.64,1418.579,1353.64,1418.579Z" transform="translate(-1165.679 -1272.232)" fill="#ec9568"/>
            <path id="Path_358" data-name="Path 358" d="M1323.869,1407.969l7.687-5.709,3.205-2.092a7.591,7.591,0,0,0,3.829,3.477l-6.542,3.116-7,5.15-6.887,9.722Z" transform="translate(-1163.968 -1268.294)" fill="#b0bfde"/>
            <path id="Path_359" data-name="Path 359" d="M1287.821,1447.124l-59.579-1.291-24.77-82.94s-16.068-50.151,14.726-50.8,66.28-.641,66.28-.641S1305.221,1329.456,1287.821,1447.124Z" transform="translate(-1138.534 -1249.314)" fill="#d1dbea"/>
            <path id="Path_360" data-name="Path 360" d="M1289.414,1241.588s4.205,42.572-5.4,47.57c-.418.211-7.26.508-10.838,3.725-3.367,3.036-3.519,6.455-4.706,7.8-.388.436-1.772,3.3-2.643,4.067-3.628,3.175-6.566-.881-8.615-1.814-4.989-2.267-6.3,3.756-7.067,1.636-.528-1.455-5.184-3.651-4.017-5.49,2.489-3.912,8.684-19.9,8.423-23.088-.766-9.33-10.843-26.569,5.448-37.055C1264.763,1235.88,1288.258,1238.847,1289.414,1241.588Z" transform="translate(-1148.517 -1233.523)" fill="#f7b68b"/>
            <path id="Path_361" data-name="Path 361" d="M1269.826,1326.275s26.988,46.538,19.327,98.045c-.6,4.056-5.44,6.96-5.44,6.96l-6.644-5.8S1277.607,1367.185,1269.826,1326.275Z" transform="translate(-1153.626 -1252.485)" fill="#163f59"/>
            <path id="Path_362" data-name="Path 362" d="M1263.046,1322.181l-1.468,10.278-18.92-15.714,2.192-3.839Z" transform="translate(-1147.814 -1249.625)" fill="#b0bfde"/>
            <path id="Path_363" data-name="Path 363" d="M1274.466,1316.264l2.925,2.474.165,10.9-7.471-6.513Z" transform="translate(-1153.682 -1250.343)" fill="#b0bfde"/>
            <path id="Path_364" data-name="Path 364" d="M1286.921,1298.124s-1.328-.729-3.717-2.317a23.843,23.843,0,0,0-4.432-2.441c-5.78-1.786-5.621-1.222-8.905-2.987-3.748-2.008-10.794-7.83-10.794-7.83s2.3,4.349,3.181,6.1a12.058,12.058,0,0,0,6.446,5.812c9.834,4.135,9.188,4.87,10.528,4.915C1279.317,1299.381,1280.047,1299.005,1286.921,1298.124Z" transform="translate(-1151.326 -1243.13)" fill="#ec9568"/>
            <path id="Path_365" data-name="Path 365" d="M1300.258,1264.831c-.037.777,2.714,7.6,3.22,8.859s1.218,2.859.985,3.305a13.3,13.3,0,0,1-2.107,2.2c-.579.465-2.785,2.414-3.16-.84S1300.258,1264.831,1300.258,1264.831Z" transform="translate(-1159.897 -1239.339)" fill="#f7b68b"/>
            <path id="Path_366" data-name="Path 366" d="M1260.358,1236c7.9-6.185,23.8-4.5,34.624,5.877,0,0-.446,2.529-4.2,4.574,0,0-6.3-8.146-16.572-7-10.775,1.212-3.371,6.437-5.883,9.057-2.11,2.2-4.091,4.075-4.091,4.075l-1.633,5.991-2.827.308s-1.5-6.445-2.939-4.547c-1.737,2.307-.975,7.137-.933,7.823s.135,1.828-.2,2.022c-.266.147.494,3.851-.312,10.114-1.326.017-2.965-1.818-3.757-5.789C1249.851,1259.572,1250.713,1243.55,1260.358,1236Z" transform="translate(-1149.575 -1232.401)" fill="#163f59"/>
            <path id="Path_367" data-name="Path 367" d="M1257.947,1259.806a4.385,4.385,0,0,0-.393,8.762" transform="translate(-1150.105 -1238.263)" fill="#f7b68b"/>
            <path id="Path_368" data-name="Path 368" d="M1296,1279.819s5.118-1.245,5.649-1.1,1.834.311,1.864.829-.769,1.839-3.316,3.253C1299.573,1283.139,1299.941,1281.843,1296,1279.819Z" transform="translate(-1159.226 -1242.308)" fill="#ec9568"/>
            <rect id="Rectangle_137" data-name="Rectangle 137" width="15.349" height="23.387" transform="translate(132.387 453.858)" fill="#593446"/>
            <rect id="Rectangle_138" data-name="Rectangle 138" width="12.419" height="23.387" transform="translate(23.504 453.858)" fill="#593446"/>
            <path id="Path_369" data-name="Path 369" d="M1291.07,1844.769h11.212v-3.408l4.867,3.408h28.263s-.492-4.625-19.489-5.357c-4.877-.187-8.285-6.823-8.285-6.823s-2.431-2.19-6.09,2.923c-.946,1.332-11.205-1.218-11.205-1.218S1289.372,1841.115,1291.07,1844.769Z" transform="translate(-1157.957 -1360.708)" fill="#081832"/>
            <path id="Path_370" data-name="Path 370" d="M1297.5,1481.59l1.333,126.665-26.77,14.791a182.405,182.405,0,0,1-18.079-68.8C1251.981,1515.67,1297.5,1481.59,1297.5,1481.59Z" transform="translate(-1150.224 -1285.713)" fill="#323232"/>
            <path id="Path_371" data-name="Path 371" d="M1274.921,1480.54l-58.914,138.885-10.712,14.79L1164.659,1749.6l-15.349-4.381s-5.6-63.425,10.466-90.433,24.1-41.8,24.1-41.8l35.481-136.311Z" transform="translate(-1127.641 -1284.663)" fill="#1e1e1e"/>
            <path id="Path_372" data-name="Path 372" d="M1284.34,1787.321c-4.844-24.847-15.512-68.175-15.88-84.148-.663-29.575,4.022-50.156,4.022-50.156l29.451-10.287.129,144.591Z" transform="translate(-1153.321 -1320.188)" fill="#323232"/>
            <path id="Path_373" data-name="Path 373" d="M1164.006,1847.736h-7.588l-2.392-2.4-1.03-5.853-2.411,2.409-7.928-7.919c1.381-3.791,6.892-7.925,6.892-7.925s5.451,9.053,7.059,8.783c6.2-1.031,6.376,2.243,6.376,2.243S1160.715,1844.145,1164.006,1847.736Z" transform="translate(-1126.419 -1359.408)" fill="#081832"/>
            <path id="Path_374" data-name="Path 374" d="M1159.8,1842.722c1.457,1.63,3.479,3.253,5.853,3.34,19,.731,19.485,5.362,19.485,5.362H1159.8Z" transform="translate(-1130.086 -1362.975)" fill="#081832"/>
            <path id="Path_375" data-name="Path 375" d="M1182.392,1534.788c1.622,3.012,11.949,5.958,11.949,5.958l7.363-8.273h-4.686l-3.349-7.526-10.043,3.858S1181.4,1532.949,1182.392,1534.788Z" transform="translate(-1134.866 -1294.989)" fill="#f7b68b"/>
            <path id="Path_376" data-name="Path 376" d="M1190.954,1360.515l-34.808,53.362-4.688.647,1.338,4.5-25.214-1.931L1122,1395.233l48.87-72.011s15.227-13.834,40.167-10.288C1229.116,1315.507,1193.632,1356.013,1190.954,1360.515Z" transform="translate(-1122 -1249.506)" fill="#d1dbea"/>
            <path id="Path_377" data-name="Path 377" d="M1152.916,1444.549l25.848,71.831s-5.625,1.718-8.893-1.187c-8.862-7.876-24.291-29.319-29.675-41.066a200.344,200.344,0,0,1-11.382-33.436Z" transform="translate(-1123.458 -1276.963)" fill="#f7b68b"/>
            <path id="Path_378" data-name="Path 378" d="M1131.744,1427.864s15.585,7.485,23.842,11.089l-2.043.284,1.338,4.5-8.71-.736-12.216-2.888-.671-5.165h3.785Z" transform="translate(-1124.085 -1274.219)" fill="#b0bfde"/>
          </g>
          <path id="Path_379" data-name="Path 379" d="M1411.373,1439.024l17.987-10.431,11.591,1.326s1.313,2.717-2.644,4.7a31.67,31.67,0,0,1-8.947,2.589l-7.707,11.489s7.528,4.455,9.523,3.476,9.826-4.686,9.826-4.686-4.539,9.673-9.374,9.673a93.765,93.765,0,0,1-13.6-.6c-3.629-.606-4.837-10.885-8.464-12.7S1411.373,1439.024,1411.373,1439.024Z" transform="translate(-1183.255 -1274.375)" fill="#ec9568"/>
        </g>
        <g id="Group_551" data-name="Group 551" transform="translate(198.076 3.656)">
          <path id="Path_380" data-name="Path 380" d="M1426.552,1451.352l5.359,1.878,22.015-7.25-8.608-15.478-2.884,4.559-7.689-.309-9.663,13.516Z" transform="translate(-1384.919 -1278.439)" fill="#f7b68b"/>
          <g id="Group_548" data-name="Group 548" transform="translate(0 30.397)">
            <path id="Path_381" data-name="Path 381" d="M1445.089,1346.181l-44.71-40.889s-2.972,3.594-1.848,6.876c3.061,8.9,14.046,26.748,21.014,34.285a159.428,159.428,0,0,0,21,18.548Z" transform="translate(-1379.184 -1282.049)" fill="#f7b68b"/>
            <g id="Group_547" data-name="Group 547">
              <g id="Group_546" data-name="Group 546">
                <path id="Path_382" data-name="Path 382" d="M1397.623,1312.877l-5.644-4.8a25.389,25.389,0,0,1-5.12-5.743c-2.326-3.589-1-7.074,2.013-9.943s5.279-3.191,5.279-3.191,4.863,2.154,4.247,6.5,3.764,13.941,2.1,14.636A7.563,7.563,0,0,0,1397.623,1312.877Z" transform="translate(-1376.488 -1278.605)" fill="#f7b68b"/>
                <path id="Path_383" data-name="Path 383" d="M1395.9,1287.177l-5.616-6.057-5.479-5.4-.7,1.582,3.355,4.369,1.792,9.14,2.213-1.218Z" transform="translate(-1376.152 -1275.722)" fill="#f7b68b"/>
                <path id="Path_384" data-name="Path 384" d="M1383.973,1285.29l-6.039-3.158-1.1,1.328,5.393,4.192,3.911,6.147,3.769-2.832Z" transform="translate(-1374.597 -1277.094)" fill="#f7b68b"/>
                <path id="Path_385" data-name="Path 385" d="M1375.387,1287.3l4.971,2.21,3.5,1.016,2.413,3.215-2.247,3.2-2.489-3.55-6.053-4.025Z" transform="translate(-1374.287 -1278.2)" fill="#f7b68b"/>
                <path id="Path_386" data-name="Path 386" d="M1373.987,1294.1l9.507,2.434,1.556,2.4-1.415,2.28-3.854-2.669-5.111-2.878Z" transform="translate(-1373.987 -1279.653)" fill="#f7b68b"/>
              </g>
              <path id="Path_387" data-name="Path 387" d="M1405.311,1311.406c-3.081-3.125-2.4-7.768-2.4-7.768s1.4-11.609-.306-13.523-2.771-6.875-2.771-6.875-1.453-1.851-2.075,2.845a19.431,19.431,0,0,0,.179,5.818s-3.14,6.33-2.9,8.386c.478,4.236,8.1,11.673,8.1,11.673S1405.706,1311.8,1405.311,1311.406Z" transform="translate(-1378.488 -1277.254)" fill="#f7b68b"/>
            </g>
            <path id="Path_388" data-name="Path 388" d="M1509.35,1340.729l-49.72,9.188-1.905,3.239-2.886-2.364-6.3,19.063,14.313,10.762,67.682-13.778s14.78-6.933,19.8-26.283C1553.975,1326.533,1513.468,1340.146,1509.35,1340.729Z" transform="translate(-1389.937 -1288.241)" fill="#b0bfde"/>
            <path id="Path_389" data-name="Path 389" d="M1460.089,1377.1s-.717-13.7-.836-20.855l-.832,1.419-2.89-2.365-2.117,6.612-1.62,9.827,3.583,2.067,1.154-2.772Z" transform="translate(-1390.634 -1292.747)" fill="#d1dbea"/>
          </g>
          <g id="Group_550" data-name="Group 550" transform="translate(58.955)">
            <path id="Path_390" data-name="Path 390" d="M1555.963,1309.185c-.671,6.287,1.627,12.3,5.076,13.233l9.966,1.917c3.558.415,7.92-4.317,9.624-10.4q4.17-15.091,8.351-30.176c1.714-6.022,1.688-18.778-2.919-23.436a13.475,13.475,0,0,0-15.256-2.934c-6,2.616-10.762,14.451-11.4,20.679Q1557.691,1293.614,1555.963,1309.185Z" transform="translate(-1471.851 -1241.149)" fill="#ec9568"/>
            <path id="Path_391" data-name="Path 391" d="M1505.027,1442.986l-56.038,1.654s41.523,25,56.608,12.394S1505.027,1442.986,1505.027,1442.986Z" transform="translate(-1448.989 -1281.11)" fill="#f7b68b"/>
            <path id="Path_392" data-name="Path 392" d="M1553.349,1865.213l.117,5.694,31.635-.671.416-15.305-19.085-.232S1556.342,1864.336,1553.349,1865.213Z" transform="translate(-1471.316 -1369.193)" fill="#161711"/>
            <path id="Path_393" data-name="Path 393" d="M1565.734,1516.066s-14.39,94.092-30.6,135.6c-14.356,36.776-33.009-10.271-33.009-10.271l24.283-157.875,45.446-4.421S1575.016,1480.183,1565.734,1516.066Z" transform="translate(-1460.358 -1288.836)" fill="#1e1e1e"/>
            <path id="Path_394" data-name="Path 394" d="M1543.959,1487.926l-4.318,60.556,7.99,4.477s6.473,89.685,8.064,94.2c9.086,25.807,30.842,9.746,33.671,1.015s6.487-72.943,4.492-119.7l-2-46.767Z" transform="translate(-1468.383 -1289.393)" fill="#323232"/>
            <path id="Path_395" data-name="Path 395" d="M1561.2,1659.482s-3.312,16.067-2.144,46.3c.744,19.158,3.692,69.871,8.011,107.574.269,2.308,19.094.158,19.094.158s8.889-122.874,9.4-146.637C1595.709,1659.72,1575.908,1642.244,1561.2,1659.482Z" transform="translate(-1472.483 -1325.852)" fill="#323232"/>
            <path id="Path_396" data-name="Path 396" d="M1547.914,1328.673l29.6-6.622,15.183,17.085s11.26,15.1,11.506,49.01c.248,33.993-11.267,96.966-11.267,96.966l-67.753-21.774S1528.339,1343.993,1547.914,1328.673Z" transform="translate(-1465.29 -1255.237)" fill="#d1dbea"/>
            <path id="Path_397" data-name="Path 397" d="M1581.574,1342.154s13.083,6.73,6.8,26.17c-10.688,33.133-33.014,60.43-37.219,65.891s-18.878,18.7-28.675,14.324l-9.8-4.374-.664-22.092,6.492-.66,3.849-.726s13.565-21.525,24.9-42.486S1581.574,1342.154,1581.574,1342.154Z" transform="translate(-1462.474 -1259.538)" fill="#b0bfde"/>
            <path id="Path_398" data-name="Path 398" d="M1558.892,1329.108l4.187,12.239,26.669-13.956-2.785-7.925Z" transform="translate(-1472.502 -1254.684)" fill="#b0bfde"/>
            <path id="Path_399" data-name="Path 399" d="M1554.56,1324.575l.616,3.2-5.986,8.7.159-7.139Z" transform="translate(-1470.426 -1255.777)" fill="#b0bfde"/>
            <path id="Path_400" data-name="Path 400" d="M1506.174,1680.864s5.317,1.613,22.143,1.852c16.767.248-18.719,135.863-18.719,135.863l-23.983-8.239,14.255-136.067Z" transform="translate(-1456.825 -1330.593)" fill="#1e1e1e"/>
            <path id="Path_401" data-name="Path 401" d="M1502.509,1853.826l-2.006,11.865-12.049.255-11.3.24-15.815.336-.094-4.342s18.69-6.91,22.3-14.224S1502.509,1853.826,1502.509,1853.826Z" transform="translate(-1451.612 -1367.279)" fill="#161711"/>
            <g id="Group_549" data-name="Group 549" transform="translate(77.357)">
              <path id="Path_402" data-name="Path 402" d="M1577.294,1247.257l1.362-7.089-2.923-.561-7.718-1.486-4.661-.9a9.5,9.5,0,0,0-11.12,7.533l-1.361,7.079,2.934.564,7.719,1.485,4.66.9A9.488,9.488,0,0,0,1577.294,1247.257Z" transform="translate(-1548.143 -1237.052)" fill="#163f59"/>
              <path id="Path_403" data-name="Path 403" d="M1582.939,1294.393a8.438,8.438,0,0,1-9.881,6.687l-18.81-3.618a8.434,8.434,0,0,1-6.694-9.878l7.237-37.618a8.445,8.445,0,0,1,9.886-6.7l18.807,3.62a8.448,8.448,0,0,1,6.7,9.885Z" transform="translate(-1547.401 -1238.349)" fill="#f7b68b"/>
              <path id="Path_404" data-name="Path 404" d="M1582.008,1240.292a9.492,9.492,0,0,1,6.982,5.716l3.2.616a7.358,7.358,0,0,1,5.832,8.612l-3.433,17.844-5.083-.978,1.4-7.259a5.178,5.178,0,0,0-4.106-6.055l-2.964-.571-7.714-1.485-4.661-.9a9.485,9.485,0,0,1-7.526-11.115l1.467-7.625Z" transform="translate(-1550.9 -1237.062)" fill="#163f59"/>
              <path id="Path_405" data-name="Path 405" d="M1593.067,1286.14a4.5,4.5,0,0,1,5.274-3.566l.368.071a4.5,4.5,0,0,1,3.573,5.267l-1.031,5.372a4.51,4.51,0,0,1-5.279,3.577l-.363-.072a4.513,4.513,0,0,1-3.544-3.418" transform="translate(-1556.956 -1246.774)" fill="#f7b68b"/>
            </g>
          </g>
        </g>
      </g>
      <g id="Group_553" data-name="Group 553" transform="translate(1281.319 1132.428)">
        <path id="Path_406" data-name="Path 406" d="M1329.212,1220.275a7.64,7.64,0,0,0,7.64,7.639h5.089v17.819l17.825-17.819h58.559a7.637,7.637,0,0,0,7.638-7.639v-63.654a7.637,7.637,0,0,0-7.638-7.64h-81.473a7.639,7.639,0,0,0-7.64,7.64Z" transform="translate(-1329.212 -1148.981)" fill="#f9e581"/>
        <rect id="Rectangle_139" data-name="Rectangle 139" width="66.199" height="5.093" transform="translate(15.276 22.917)" fill="#fff"/>
        <rect id="Rectangle_140" data-name="Rectangle 140" width="66.199" height="5.088" transform="translate(15.276 35.649)" fill="#fff"/>
        <rect id="Rectangle_141" data-name="Rectangle 141" width="66.199" height="5.093" transform="translate(15.276 48.376)" fill="#fff"/>
      </g>
      <g id="Group_554" data-name="Group 554" transform="translate(1357.489 1096.828)">
        <path id="Path_407" data-name="Path 407" d="M1522.864,1174.985a7.64,7.64,0,0,1-7.64,7.639h-5.089v17.819l-17.825-17.819h-58.559a7.637,7.637,0,0,1-7.638-7.639v-63.654a7.637,7.637,0,0,1,7.638-7.64h81.473a7.639,7.639,0,0,1,7.64,7.64Z" transform="translate(-1426.113 -1103.691)" fill="#f1ca08"/>
        <rect id="Rectangle_142" data-name="Rectangle 142" width="66.199" height="5.093" transform="translate(15.276 22.917)" fill="#fff"/>
        <rect id="Rectangle_143" data-name="Rectangle 143" width="66.199" height="5.088" transform="translate(15.276 35.649)" fill="#fff"/>
        <rect id="Rectangle_144" data-name="Rectangle 144" width="66.199" height="5.093" transform="translate(15.276 48.376)" fill="#fff"/>
      </g>
    </g>
  </g>
</svg>
