<svg xmlns="http://www.w3.org/2000/svg" xmlns:xlink="http://www.w3.org/1999/xlink" width="640.585" height="403.756" viewBox="0 0 640.585 403.756">
  <defs>
    <clipPath id="clip-path">
      <rect id="Rectangle_279" data-name="Rectangle 279" width="306.029" height="352.598" fill="none"/>
    </clipPath>
  </defs>
  <g id="Group_659" data-name="Group 659" transform="translate(-197.714 -241.392)">
    <g id="Group_641" data-name="Group 641" transform="translate(224.704 298.988)">
      <path id="Path_413" data-name="Path 413" d="M532.837,568.032a9.668,9.668,0,0,1-9.665,9.671H257.2a9.673,9.673,0,0,1-9.676-9.671V345.583a9.678,9.678,0,0,1,9.676-9.674H523.172a9.673,9.673,0,0,1,9.665,9.674Z" transform="translate(-247.522 -335.909)" fill="#fff"/>
      <path id="Path_414" data-name="Path 414" d="M247.522,370.879v-25.3a9.678,9.678,0,0,1,9.676-9.674H523.172a9.673,9.673,0,0,1,9.665,9.674v25.3" transform="translate(-247.522 -335.909)" fill="#f1ca08"/>
      <g id="Group_639" data-name="Group 639" transform="translate(33.996 72.517)">
        <rect id="Rectangle_258" data-name="Rectangle 258" width="19.34" height="19.34" transform="translate(77.372)" fill="#c5e1f9"/>
        <rect id="Rectangle_259" data-name="Rectangle 259" width="19.344" height="19.34" transform="translate(116.055)" fill="#c5e1f9"/>
        <rect id="Rectangle_260" data-name="Rectangle 260" width="19.344" height="19.34" transform="translate(154.746)" fill="#c5e1f9"/>
        <rect id="Rectangle_261" data-name="Rectangle 261" width="19.344" height="19.34" transform="translate(193.43)" fill="#9ac7f7"/>
        <rect id="Rectangle_262" data-name="Rectangle 262" width="19.334" height="19.344" transform="translate(0 38.688)" fill="#c5e1f9"/>
        <rect id="Rectangle_263" data-name="Rectangle 263" width="19.342" height="19.344" transform="translate(38.681 38.688)" fill="#c5e1f9"/>
        <rect id="Rectangle_264" data-name="Rectangle 264" width="19.34" height="19.344" transform="translate(77.372 38.688)" fill="#b4f108"/>
        <rect id="Rectangle_265" data-name="Rectangle 265" width="19.344" height="19.344" transform="translate(116.055 38.688)" fill="#b4f108"/>
        <rect id="Rectangle_266" data-name="Rectangle 266" width="19.344" height="19.344" transform="translate(154.746 38.688)" fill="#c5e1f9"/>
        <rect id="Rectangle_267" data-name="Rectangle 267" width="19.344" height="19.344" transform="translate(193.43 38.688)" fill="#9ac7f7"/>
        <rect id="Rectangle_268" data-name="Rectangle 268" width="19.334" height="19.344" transform="translate(0 77.372)" fill="#b0bfde"/>
        <rect id="Rectangle_269" data-name="Rectangle 269" width="19.342" height="19.344" transform="translate(38.681 77.372)" fill="#b0bfde"/>
        <rect id="Rectangle_270" data-name="Rectangle 270" width="19.34" height="19.344" transform="translate(77.372 77.372)" fill="#b0bfde"/>
        <rect id="Rectangle_271" data-name="Rectangle 271" width="19.344" height="19.344" transform="translate(116.055 77.372)" fill="#c5e1f9"/>
        <rect id="Rectangle_272" data-name="Rectangle 272" width="19.344" height="19.344" transform="translate(154.746 77.372)" fill="#0561fc"/>
        <rect id="Rectangle_273" data-name="Rectangle 273" width="19.344" height="19.344" transform="translate(193.43 77.372)" fill="#9ac7f7"/>
        <rect id="Rectangle_274" data-name="Rectangle 274" width="19.334" height="19.347" transform="translate(0 116.058)" fill="#c5e1f9"/>
        <rect id="Rectangle_275" data-name="Rectangle 275" width="19.342" height="19.347" transform="translate(38.681 116.058)" fill="#c5e1f9"/>
        <rect id="Rectangle_276" data-name="Rectangle 276" width="19.34" height="19.347" transform="translate(77.372 116.058)" fill="#c5e1f9"/>
      </g>
      <line id="Line_162" data-name="Line 162" x2="9.67" transform="translate(38.829 82.191)" fill="none" stroke="#c5e1f9" stroke-width="9.137"/>
      <line id="Line_163" data-name="Line 163" x2="9.672" transform="translate(77.515 82.191)" fill="none" stroke="#c5e1f9" stroke-width="9.137"/>
      <line id="Line_164" data-name="Line 164" x2="9.667" transform="translate(232.264 198.247)" fill="none" stroke="#c5e1f9" stroke-width="9.137"/>
      <line id="Line_165" data-name="Line 165" x2="9.672" transform="translate(193.576 198.247)" fill="none" stroke="#c5e1f9" stroke-width="9.137"/>
      <line id="Line_166" data-name="Line 166" x2="9.667" transform="translate(154.895 198.247)" fill="none" stroke="#c5e1f9" stroke-width="9.137"/>
      <line id="Line_167" data-name="Line 167" x2="87.049" transform="translate(106.389 19.343)" fill="none" stroke="#fff" stroke-width="9.137"/>
      <line id="Line_168" data-name="Line 168" x2="9.665" transform="translate(19.346 19.343)" fill="none" stroke="#fff" stroke-width="9.137"/>
      <line id="Line_169" data-name="Line 169" x2="9.672" transform="translate(256.304 19.343)" fill="none" stroke="#fff" stroke-width="9.137"/>
      <g id="Group_640" data-name="Group 640" transform="translate(0 35.293)">
        <rect id="Rectangle_277" data-name="Rectangle 277" width="285.315" height="6.792" fill="#eaf4fe"/>
      </g>
    </g>
    <g id="Group_643" data-name="Group 643" transform="translate(504.915 298.925)">
      <g id="Group_642" data-name="Group 642" transform="translate(0 0)">
        <path id="Path_415" data-name="Path 415" d="M817.7,640.012c-.686,18.542-14.726,63.79-23.242,89.71H662.336l-23.631-64.986s-50.018-77.883,36.1-129.552c12.362-7.416,76.643-1.978,76.643-1.978s47.615,3.189,110.761,97.9C864.182,634.079,818.69,613.311,817.7,640.012Z" transform="translate(-624.26 -385.905)" fill="#f1ca08"/>
        <path id="Path_416" data-name="Path 416" d="M835.864,623.857c-.795,2.261.331,4.237,2.516,4.237H943.207c2.185,0,4.6-1.976,5.4-4.237l26.635-75.479c.8-2.26-.332-3.837-2.515-3.837H867.9a6.014,6.014,0,0,0-5.4,3.837Z" transform="translate(-678.412 -389.302)" fill="#f7f8fc"/>
        <path id="Path_417" data-name="Path 417" d="M757.189,453.31c-.988,4.945-9.544,19.915,27.691,54.392,26.7,24.723-58.347,27.69-88.015-9.89,0,0,45.491-5.934,30.656-89C716.39,346.471,757.189,453.31,757.189,453.31Z" transform="translate(-642.863 -349.521)" fill="#f7b68b"/>
        <path id="Path_418" data-name="Path 418" d="M758.042,587.021l17.8,7.252s6.865,3.191,5.274,4.12c-1.978,1.154-15.822-3.131-15.822-3.131a65.241,65.241,0,0,0-9.89,5.6c-5.934,3.957-16.482,3.3-16.482,3.3s-36.261,70.545-68.566,82.412-36.92,6.593-41.536-1.979-13.185-46.809,19.779-56.7,83.07-27.691,83.07-27.691l15.823-16.647,11.207-.494s4.617,3.3,7.253,5.275" transform="translate(-624.266 -399.173)" fill="#f7b68b"/>
        <path id="Path_419" data-name="Path 419" d="M839.089,623.995c-.8,2.184.331,4.094,2.516,4.094H946.431a6.407,6.407,0,0,0,5.4-4.094l26.635-72.933c.8-2.185-.332-3.708-2.515-3.708H871.12a6.006,6.006,0,0,0-5.4,3.708Z" transform="translate(-679.238 -390.023)" fill="#e6e6e6"/>
        <path id="Rectangle_278" data-name="Rectangle 278" d="M5.318,0H142.506a5.318,5.318,0,0,1,5.318,5.318v.735a5.318,5.318,0,0,1-5.318,5.318H5.317A5.317,5.317,0,0,1,0,6.054V5.318A5.318,5.318,0,0,1,5.318,0Z" transform="translate(121.835 238.066)" fill="#e6e6e6"/>
        <path id="Path_420" data-name="Path 420" d="M860.856,668.2h75.159s15.823,5.3.99,24.091-30.163,13.529-38.57,10.068-36.591-29.332-36.591-29.332l-11.866,1.4-14.834-6.961a9.155,9.155,0,0,1,7.911-.019c4.451,1.977,6.922,1.473,6.922,1.473l4.45-2.477-2.967-3.464-1.483-3.462,6.922,4.092Z" transform="translate(-678.293 -418.762)" fill="#ec9568"/>
        <path id="Path_421" data-name="Path 421" d="M739.162,456.084c1.9-12.009,1.8-27.438-1.743-47.276-11.131-62.337,29.668,44.5,29.668,44.5-.847,4.238-7.251,15.845,14.385,40.784C763.907,490.314,748.74,476.126,739.162,456.084Z" transform="translate(-652.761 -349.521)" fill="#ec9568"/>
        <path id="Path_422" data-name="Path 422" d="M773.945,376.341s9.889,61.314,5.934,75.16-15.763,17.076-29.668-1.978c-26.7-36.59-25.713-65.269-17.8-70.214S762.078,355.574,773.945,376.341Z" transform="translate(-650.718 -343.756)" fill="#f7b68b"/>
        <path id="Path_423" data-name="Path 423" d="M754.488,377.311c9.607,1.543,24.723,6.922,34.613-17.8s-11.867-29.668-22.746-16.812-9.889,18.789-2.966,12.856-3.957-23.735-13.846-11.866-13.845,29.667-8.9,28.679S729.765,351.6,723.831,360.5s-9.889,21.756-2.966,25.712,14.833-9.889,7.912-4.945-8.9,31.646,0,35.6,8.9-2.965.988-10.876,2.966-24.231,6.922-8.407c.339,1.357,2.967,10.383,2.967,10.383l5.934,4.945s0-17.8-3.956-24.228C732.714,374.194,732.984,373.858,754.488,377.311Z" transform="translate(-648.072 -335.825)" fill="#1e1e1e"/>
        <path id="Path_424" data-name="Path 424" d="M860.371,672.464s53.5,5.15,66.942,6.51c8.89.9,17.1,4.64,19.4,9.361a36.924,36.924,0,0,1-4.613,7.273c-14.835,18.789-30.162,13.529-38.57,10.068s-36.591-29.332-36.591-29.332l-11.873,1.427C854.509,676.746,859.367,672.642,860.371,672.464Z" transform="translate(-683.385 -422.078)" fill="#f7b68b"/>
        <path id="Path_425" data-name="Path 425" d="M632.011,694.051c3.5,2.443,4.634,4.338,10.319,3.58,8.715-1.162,35.974-16.722,48.9-26.532,20.468-15.54,48.493-59.456,49.588-59.436-1.951,3.756-37.08,70.706-68.477,82.239C642.81,704.748,636.416,701.272,632.011,694.051Z" transform="translate(-626.246 -406.5)" fill="#ec9568"/>
        <circle id="Ellipse_28" data-name="Ellipse 28" cx="10.194" cy="10.194" r="10.194" transform="translate(224.217 190.826)" fill="#f7f8fc"/>
      </g>
    </g>
    <g id="Group_648" data-name="Group 648" transform="translate(242.913 292.55)">
      <g id="Group_647" data-name="Group 647" transform="translate(0 0)">
        <g id="Group_644" data-name="Group 644" transform="translate(67.34 135.213)">
          <path id="Path_426" data-name="Path 426" d="M430.3,637.147l-26.273-71.474s-11.34-5.518-10.751,3.174,7.7,61.953,7.7,61.953S424.645,664.045,430.3,637.147Z" transform="translate(-370.41 -523.112)" fill="#ec9568"/>
          <path id="Path_427" data-name="Path 427" d="M389.385,561.989S381.2,551.51,376.871,546.5s-13.86-20.653-14.1-24.13l-.235-3.477,10.145,13.649-1.23-7.133s-6.023-7.975-6.375-9.483a5.734,5.734,0,0,1,.291-3.068c1.021-3.324,3.067-2.558,3.067-2.558l8.361,9.38,4.8,8.256-.267-7.619s-7.483-7.463-7.572-8.767,2.074-2.506,2.074-2.506l10.2,10.811,4.273,15.262s2.191-.768,1.459-4.22-.15-5.88,1.019-7.031,3.569,8.538,3.453,10.507,4.592,8.921,1.293,15.416A71.9,71.9,0,0,1,389.385,561.989Z" transform="translate(-362.541 -509.046)" fill="#ec9568"/>
        </g>
        <path id="Path_428" data-name="Path 428" d="M430.3,637.147l-26.273-71.474s-11.34-5.518-10.751,3.174,7.7,61.953,7.7,61.953S424.645,664.045,430.3,637.147Z" transform="translate(-303.071 -387.899)" fill="#ec9568"/>
        <g id="Group_646" data-name="Group 646">
          <g id="Group_645" data-name="Group 645" clip-path="url(#clip-path)">
            <path id="Path_429" data-name="Path 429" d="M524.6,470.468s-9.928,13.693-20.759,14.413S487.6,463.262,487.6,448.128s18.954-29.547,20.759-33.872,20.758,10.089,20.758,23.062S524.6,466.865,524.6,470.468Z" transform="translate(-327.244 -349.345)" fill="#ec9568"/>
            <path id="Path_430" data-name="Path 430" d="M624.852,1123.215s.938,8,.938,10.467-6.1,9.441-6.568,11.494l-.469,2.052h45.974s.939-4.105-6.568-9.441-9.851-9.031-10.789-15.8S624.852,1123.215,624.852,1123.215Z" transform="translate(-360.848 -530.182)" fill="#c5e1f9"/>
            <path id="Path_431" data-name="Path 431" d="M495.666,1124.514l4.691,22.166H428.581s-.469-6.979,7.975-9.031,31.431-8.21,37.53-14.778S495.666,1124.514,495.666,1124.514Z" transform="translate(-312.121 -530.454)" fill="#c5e1f9"/>
            <path id="Path_432" data-name="Path 432" d="M601.636,1012.606,531.268,791.562l-10.555-96.053v-5.541l40.11.616S586.155,714.6,585.452,746s-2.111,102.21,3.519,115.755,20.406,36.328,21.814,50.489,8.444,99.132,8.444,99.132Z" transform="translate(-335.728 -420.188)" fill="#323232"/>
            <path id="Path_433" data-name="Path 433" d="M460.117,691.352s-14.074,20.934-10.556,57.877,30.962,262.3,30.962,262.3l21.111.615s7.037-86.2,4.222-107.135S495.3,862.523,496,858.829s38.7-117.6,35.888-127.455-16.888-40.021-19-40.637S460.117,691.352,460.117,691.352Z" transform="translate(-317.353 -420.341)" fill="#1e1e1e"/>
            <path id="Path_435" data-name="Path 435" d="M574.432,537.471s17.592,12.314,3.518,48.642-19.7,56.031-22.518,56.646-17.592,3.078-22.517-1.848-9.148-9.235-8.445-12.314,16.562-81.381,18.3-88.664C546.285,525.156,569.506,535.624,574.432,537.471Z" transform="translate(-336.671 -379.753)" fill="#b0bfde"/>
            <path id="Path_436" data-name="Path 436" d="M470.2,540.049l20.406-9.236,38-.616s19.7,2.463,28.148,18.472c2.9,5.506-4.222,85.585-4.926,96.668l-.7,11.083-92.886-5.541S456.121,549.9,470.2,540.049Z" transform="translate(-319.69 -379.252)" fill="#d1dbea"/>
            <path id="Path_437" data-name="Path 437" d="M461.848,545.02s17.592,12.315,3.519,48.642-19.7,56.03-22.518,56.646-17.592,3.079-22.518-1.848-9.148-9.235-8.444-12.314,28.147-69.577,31.666-76.35S456.922,543.173,461.848,545.02Z" transform="translate(-307.825 -382.992)" fill="#b0bfde"/>
            <path id="Path_438" data-name="Path 438" d="M546.9,482.638l-2.815,33.249s1.445,4.628-10.555,5.542c-16.185,1.231-23.222-4.31-23.222-4.31a68.321,68.321,0,0,0,7.741-36.328C516.639,459.856,546.9,482.638,546.9,482.638Z" transform="translate(-333.061 -364.326)" fill="#f7b68b"/>
            <path id="Path_439" data-name="Path 439" d="M513.58,402.487a57.9,57.9,0,0,1,40.813,9.236c11.963,8,19,22.165,12.667,33.864s-20.407,27.091-27.444,27.091-22.517-9.236-24.629-12.93-2.111-6.157-3.518-14.162-6.333-5.542-6.333-3.694-2.814,7.389-4.222,3.694S470.656,415.417,513.58,402.487Z" transform="translate(-327.891 -346.363)" fill="#1e1e1e"/>
            <ellipse id="Ellipse_29" data-name="Ellipse 29" cx="30.61" cy="25.86" rx="30.61" ry="25.86" transform="translate(199.762 32.111)" fill="#1e1e1e"/>
          </g>
        </g>
      </g>
    </g>
    <g id="Group_649" data-name="Group 649" transform="translate(199.577 244.316)">
      <line id="Line_170" data-name="Line 170" x2="67.319" transform="translate(27.617 323.792)" fill="none" stroke="#b0bfde" stroke-width="6.873"/>
      <line id="Line_171" data-name="Line 171" x2="67.319" transform="translate(27.617 338.808)" fill="none" stroke="#b0bfde" stroke-width="6.873"/>
      <path id="Path_440" data-name="Path 440" d="M231.008,697.052l-10.417,13.056-6.853-4.419" transform="translate(-213.738 -373.769)" fill="none" stroke="#b0bfde" stroke-width="6.873"/>
      <line id="Line_172" data-name="Line 172" x2="67.319" transform="translate(27.617 368.568)" fill="none" stroke="#b0bfde" stroke-width="6.873"/>
      <line id="Line_173" data-name="Line 173" x2="67.319" transform="translate(27.617 383.584)" fill="none" stroke="#b0bfde" stroke-width="6.873"/>
      <path id="Path_441" data-name="Path 441" d="M231.008,757.253l-10.417,13.056-6.853-4.422" transform="translate(-213.738 -389.194)" fill="none" stroke="#b0bfde" stroke-width="6.873"/>
      <line id="Line_174" data-name="Line 174" x2="67.319" transform="translate(181.429 0.513)" fill="none" stroke="#f1ca08" stroke-width="6.873"/>
      <line id="Line_175" data-name="Line 175" x2="67.319" transform="translate(181.429 15.528)" fill="none" stroke="#f1ca08" stroke-width="6.873"/>
      <path id="Path_442" data-name="Path 442" d="M437.806,262.4l-10.417,13.06-6.853-4.424" transform="translate(-266.724 -262.404)" fill="none" stroke="#f1ca08" stroke-width="6.873"/>
    </g>
    <path id="Path_443" data-name="Path 443" d="M883.052,475.442C913.39,392.7,787.551,220.1,639.181,337.235" transform="translate(-123.168 -27.136)" fill="none" stroke="#f1ca08" stroke-miterlimit="10" stroke-width="3.691" stroke-dasharray="14.765"/>
    <g id="Group_658" data-name="Group 658" transform="translate(680.912 333.148)">
      <g id="Group_651" data-name="Group 651" transform="translate(0 0)">
        <g id="Group_650" data-name="Group 650">
          <rect id="Rectangle_280" data-name="Rectangle 280" width="157.386" height="86.244" fill="#eaf4fe"/>
          <rect id="Rectangle_281" data-name="Rectangle 281" width="157.386" height="14.418" fill="#d1dbea"/>
          <line id="Line_176" data-name="Line 176" x2="4.188" transform="translate(4.671 7.06)" fill="none" stroke="#eaf4fe" stroke-width="6.638"/>
          <line id="Line_177" data-name="Line 177" x2="4.188" transform="translate(12.832 7.06)" fill="none" stroke="#eaf4fe" stroke-width="6.638"/>
          <line id="Line_178" data-name="Line 178" x2="4.186" transform="translate(21 7.06)" fill="none" stroke="#eaf4fe" stroke-width="6.638"/>
        </g>
      </g>
      <line id="Line_179" data-name="Line 179" x2="120.265" transform="translate(11.728 41.972)" fill="none" stroke="#b0bfde" stroke-miterlimit="10" stroke-width="8.518"/>
      <line id="Line_180" data-name="Line 180" x2="77.654" transform="translate(11.728 53.418)" fill="none" stroke="#b0bfde" stroke-miterlimit="10" stroke-width="8.518"/>
      <g id="Group_652" data-name="Group 652" transform="translate(11.728 69.349)">
        <rect id="Rectangle_282" data-name="Rectangle 282" width="6.904" height="6.335" fill="#fec12f"/>
      </g>
      <g id="Group_653" data-name="Group 653" transform="translate(21.076 69.349)">
        <rect id="Rectangle_283" data-name="Rectangle 283" width="32.57" height="6.335" fill="#b0bfde" stroke="rgba(0,0,0,0)" stroke-width="1"/>
      </g>
      <g id="Group_654" data-name="Group 654" transform="translate(62.943 69.349)">
        <rect id="Rectangle_284" data-name="Rectangle 284" width="6.905" height="6.335" fill="#7ac943"/>
      </g>
      <g id="Group_655" data-name="Group 655" transform="translate(72.289 69.349)">
        <rect id="Rectangle_285" data-name="Rectangle 285" width="28.346" height="6.335" fill="#b0bfde" stroke="rgba(0,0,0,0)" stroke-width="1"/>
      </g>
      <g id="Group_656" data-name="Group 656" transform="translate(110.988 69.349)">
        <rect id="Rectangle_286" data-name="Rectangle 286" width="6.905" height="6.335" fill="#0561fc"/>
      </g>
      <g id="Group_657" data-name="Group 657" transform="translate(120.336 69.349)">
        <rect id="Rectangle_287" data-name="Rectangle 287" width="28.345" height="6.335" fill="#b0bfde" stroke="rgba(0,0,0,0)" stroke-width="1"/>
      </g>
      <line id="Line_181" data-name="Line 181" x2="49.906" transform="translate(11.728 28.465)" fill="none" stroke="#b0bfde" stroke-miterlimit="10" stroke-width="8.518"/>
    </g>
  </g>
</svg>
